<?xml version="1.0" standalone="no"?>
<!DOCTYPE svg PUBLIC "-//W3C//DTD SVG 1.1//EN" "http://www.w3.org/Graphics/SVG/1.1/DTD/svg11.dtd" >
<svg xmlns="http://www.w3.org/2000/svg">
<metadata>Generated by IcoMoon</metadata>
<defs>
<font id="icomoon" horiz-adv-x="1024">
<font-face units-per-em="1024" ascent="960" descent="-64" />
<missing-glyph horiz-adv-x="1024" />
<glyph unicode="&#x20;" horiz-adv-x="512" d="" />
<glyph unicode="&#xe900;" glyph-name="usuario" d="M511.996 266.379c-187.771 0-354.658-112.513-425.169-286.634-6.593-16.278 1.26-34.818 17.541-41.413 16.286-6.597 34.818 1.26 41.413 17.539 60.735 149.991 204.489 246.907 366.219 246.907 161.735 0 305.486-96.913 366.221-246.907 5.007-12.368 16.914-19.874 29.483-19.874 3.977 0 8.018 0.752 11.928 2.335 16.278 6.595 24.13 25.131 17.539 41.413-70.515 174.123-237.404 286.634-425.175 286.634zM511.996 362.848c164.639 0 298.574 133.943 298.574 298.582 0 164.635-133.939 298.57-298.574 298.57-164.633 0-298.572-133.939-298.572-298.572s133.935-298.58 298.572-298.58zM511.996 896.403c129.571 0 234.973-105.413 234.973-234.973 0-129.567-105.411-234.981-234.973-234.981s-234.971 105.411-234.971 234.981c0 129.565 105.402 234.973 234.971 234.973z" />
<glyph unicode="&#xe901;" glyph-name="impresora" d="M853.333 413.867c47.053 0 85.333 38.281 85.333 85.333s-38.281 85.333-85.333 85.333-85.333-38.281-85.333-85.333 38.281-85.333 85.333-85.333zM853.333 550.4c28.228 0 51.2-22.972 51.2-51.2s-22.972-51.2-51.2-51.2-51.2 22.972-51.2 51.2 22.972 51.2 51.2 51.2zM716.8 226.133h-409.6c-9.438 0-17.067-7.629-17.067-17.067s7.629-17.067 17.067-17.067h409.6c9.438 0 17.067 7.629 17.067 17.067s-7.629 17.067-17.067 17.067zM716.8 140.8h-409.6c-9.438 0-17.067-7.629-17.067-17.067s7.629-17.067 17.067-17.067h409.6c9.438 0 17.067 7.629 17.067 17.067s-7.629 17.067-17.067 17.067zM870.4 669.867v290.133h-716.8v-290.133h-153.6v-580.267h102.4v-51.2h51.2v-102.4h716.8v102.4h51.2v51.2h102.4v580.267h-153.6zM187.733 925.867h648.533v-256h-648.533v256zM153.6 635.733h836.267v-273.067h-955.733v273.067h119.467zM136.533 72.533v119.467c0 9.438-7.629 17.067-17.067 17.067s-17.067-7.629-17.067-17.067v-68.267h-68.267v204.8h119.467v-256h-17.067zM836.267-29.867h-648.533v358.4h648.533v-358.4zM921.6 123.733v68.267c0 9.438-7.629 17.067-17.067 17.067s-17.067-7.629-17.067-17.067v-119.467h-17.067v256h119.467v-204.8h-68.267z" />
<glyph unicode="&#xe902;" glyph-name="calendario" d="M972.8 891.733h-119.467v51.2c0 9.438-7.629 17.067-17.067 17.067h-119.467c-9.438 0-17.067-7.629-17.067-17.067v-51.2h-375.467v51.2c0 9.438-7.629 17.067-17.067 17.067h-119.467c-9.438 0-17.067-7.629-17.067-17.067v-51.2h-119.467c-9.438 0-17.067-7.629-17.067-17.067v-921.6c0-9.438 7.629-17.067 17.067-17.067h921.6c9.438 0 17.067 7.629 17.067 17.067v921.6c0 9.438-7.629 17.067-17.067 17.067zM733.867 925.867h85.333v-102.4h-85.333v102.4zM204.8 925.867h85.333v-102.4h-85.333v102.4zM68.267 857.6h102.4v-51.2c0-9.438 7.629-17.067 17.067-17.067h119.467c9.438 0 17.067 7.629 17.067 17.067v51.2h375.467v-51.2c0-9.438 7.629-17.067 17.067-17.067h119.467c9.438 0 17.067 7.629 17.067 17.067v51.2h102.4v-153.6h-887.467v153.6zM68.267-29.867v699.733h887.467v-699.733h-887.467zM648.533 567.467h-460.8v-494.933h648.533v494.933h-187.733zM529.067 533.333h119.467v-119.467h-119.467v119.467zM648.533 260.267h-119.467v119.467h119.467v-119.467zM375.467 379.733h119.467v-119.467h-119.467v119.467zM375.467 533.333h119.467v-119.467h-119.467v119.467zM221.867 533.333h119.467v-119.467h-119.467v119.467zM221.867 379.733h119.467v-119.467h-119.467v119.467zM341.333 106.667h-119.467v119.467h119.467v-119.467zM494.933 106.667h-119.467v119.467h119.467v-119.467zM648.533 106.667h-119.467v119.467h119.467v-119.467zM802.133 106.667h-119.467v119.467h119.467v-119.467zM802.133 260.267h-119.467v119.467h119.467v-119.467zM802.133 533.333v-119.467h-119.467v119.467h119.467z" />
<glyph unicode="&#xe903;" glyph-name="auto-1" d="M274.92 177.945c42.047 0 76.255 34.208 76.255 76.255s-34.208 76.255-76.255 76.255-76.255-34.208-76.255-76.255 34.208-76.255 76.255-76.255zM274.92 297.775c24.027 0 43.574-19.548 43.574-43.574s-19.548-43.574-43.574-43.574-43.574 19.548-43.574 43.574 19.545 43.574 43.574 43.574zM749.080 330.456c-42.047 0-76.255-34.208-76.255-76.255s34.208-76.255 76.255-76.255 76.255 34.208 76.255 76.255-34.208 76.255-76.255 76.255zM749.080 210.626c-24.027 0-43.574 19.548-43.574 43.574s19.548 43.574 43.574 43.574 43.574-19.548 43.574-43.574-19.545-43.574-43.574-43.574zM299.574 707.161h51.808c9.026 0 16.34 7.316 16.34 16.34s-7.314 16.34-16.34 16.34h-51.808c-22.709 0-58.893-15.635-74.462-32.173l-130.915-139.101c-4.469-4.747-5.684-11.695-3.1-17.68 2.586-5.985 8.482-9.859 15.001-9.859h632.42c5.582 0 10.774 2.848 13.776 7.554 3 4.704 3.394 10.617 1.041 15.676l-67.222 144.591c-7.222 15.351-31.87 30.992-48.836 30.992h-220.533c-9.026 0-16.34-7.316-16.34-16.34l-0.002-149.792h-256.484l104.993 111.559c9.244 9.822 37.182 21.892 50.664 21.892zM433.084 707.161h204.146c4.8-0.224 17.086-8.020 19.28-12.159l56.392-121.292h-279.82l0.002 133.451zM1024 398.56c0 58.022-44.784 120.154-99.827 138.501-0.037 0.013-76.425 25.476-76.425 25.476-12.754 4.251-29.578 19.199-35.302 31.361l-67.192 142.783c-18.081 38.424-65.51 68.523-107.978 68.523h-337.702c-40.609 0-94.223-23.164-122.056-52.738l-150.676-160.097c-15.053-15.992-26.842-45.718-26.842-67.68v-205.127c0-45.052 36.65-81.702 81.702-81.702h30.633c8.225-82.456 77.998-147.064 162.585-147.064s154.36 64.608 162.585 147.064h99.152c9.026 0 16.34 7.316 16.34 16.34s-7.314 16.34-16.34 16.34h-99.152c-8.225 82.456-77.998 147.064-162.585 147.064s-154.36-64.608-162.585-147.064h-30.633c-27.029 0-49.021 21.99-49.021 49.021v205.127c0 13.713 8.56 35.295 17.957 45.28l150.678 160.099c21.659 23.014 66.656 42.455 98.258 42.455h337.702c29.809 0 65.715-22.785 78.406-49.758l67.192-142.783c9.632-20.469 33.077-41.298 54.536-48.45l62.089-20.696c-1.072-6.19-1.63-12.482-1.63-18.829 0-54.987 40.633-100.653 93.45-108.568v-63.88c0-27.031-18.208-49.021-40.592-49.021h-39.062c-8.225 82.456-77.998 147.064-162.585 147.064-90.101 0-163.404-73.303-163.404-163.404s73.303-163.404 163.404-163.404c84.587 0 154.36 64.608 162.585 147.064h39.062c40.402 0 73.273 36.65 73.273 81.702v79.001zM274.92 384.924c72.081 0 130.723-58.643 130.723-130.723s-58.643-130.723-130.723-130.723-130.723 58.643-130.723 130.723 58.643 130.723 130.723 130.723zM749.080 123.477c-72.081 0-130.723 58.643-130.723 130.723s58.643 130.723 130.723 130.723 130.723-58.643 130.723-130.723-58.643-130.723-130.723-130.723zM930.55 492.008c0 2.111 0.087 4.214 0.255 6.303 28.672-16.617 51.825-48.738 58.529-81.192-33.696 8.246-58.784 38.685-58.784 74.889z" />
<glyph unicode="&#xe904;" glyph-name="auto-2" d="M925.109 554.611l98.891 63.584-24.045 37.368-100.262-64.47-106.335 272.298h-562.724l-106.337-272.296-100.252 64.47-24.045-37.37 98.881-63.586c-40.281-18.334-68.37-58.939-68.37-106.003v-156.045c0-56.861 40.987-104.306 94.96-114.41v-38.776c0-58.872 47.894-106.766 106.766-106.766 58.861 0 106.755 47.894 106.755 106.766v36.762h346.001v-36.762c0-58.872 47.894-106.766 106.766-106.766 58.861 0 106.755 47.894 106.755 106.766v38.755c34.594 6.447 64.75 28.283 81.584 60.18 8.744 16.597 13.377 35.372 13.377 54.251v156.045c0.002 47.064-28.087 87.669-68.366 106.005zM260.993 818.947h228.787v-85.719h44.442v85.719h228.776l99.171-253.916h-700.347l99.171 253.916zM294.55 139.375c0-34.373-27.949-62.322-62.314-62.322-34.363 0-62.324 27.949-62.324 62.322v36.762h124.635v-36.762zM791.751 77.053c-34.363 0-62.314 27.949-62.314 62.322v36.762h124.638v-36.762c0-34.373-27.961-62.322-62.324-62.322zM949.035 292.561c0-11.849-2.777-23.132-8.246-33.506-12.52-23.74-36.935-38.475-63.722-38.475h-730.141c-39.681 0-71.97 32.289-71.97 71.981v156.045c0 39.691 32.289 71.981 71.97 71.981h730.141c39.679 0 71.968-32.289 71.968-71.981v-156.045zM809.002 450.042c-49.357 0-89.502-40.147-89.502-89.514 0-36.045 21.45-68.422 54.65-82.463 11.024-4.662 22.752-7.030 34.852-7.030 32.237 0 62.117 17.45 77.981 45.549 7.55 13.348 11.534 28.559 11.534 43.944 0 49.367-40.155 89.514-89.514 89.514zM848.29 338.434c-11.013-19.508-36.682-27.951-56.822-19.446-16.718 7.076-27.525 23.374-27.525 41.537 0 24.846 20.213 45.071 45.060 45.071 24.856 0 45.071-20.227 45.071-45.071 0-7.747-1.996-15.385-5.785-22.091zM214.986 450.042c-49.355 0-89.514-40.147-89.514-89.514 0-49.346 40.158-89.493 89.514-89.493s89.516 40.147 89.516 89.493c0 49.367-40.16 89.514-89.516 89.514zM214.986 315.476c-24.856 0-45.071 20.202-45.071 45.052 0 24.846 20.215 45.071 45.071 45.071 24.858 0 45.073-20.227 45.073-45.071 0-24.85-20.215-45.052-45.073-45.052zM430.841 382.746h162.308v-44.444h-162.308v44.444z" />
<glyph unicode="&#xe905;" glyph-name="doc" d="M725.333 584.533h-426.667c-9.421 0-17.067-7.629-17.067-17.067s7.646-17.067 17.067-17.067h426.667c9.421 0 17.067 7.629 17.067 17.067s-7.646 17.067-17.067 17.067zM298.667 686.933h170.667c9.421 0 17.067 7.629 17.067 17.067s-7.646 17.067-17.067 17.067h-170.667c-9.421 0-17.067-7.629-17.067-17.067s7.646-17.067 17.067-17.067zM725.333 448h-426.667c-9.421 0-17.067-7.629-17.067-17.067s7.646-17.067 17.067-17.067h426.667c9.421 0 17.067 7.629 17.067 17.067s-7.646 17.067-17.067 17.067zM725.333 311.467h-426.667c-9.421 0-17.067-7.629-17.067-17.067s7.646-17.067 17.067-17.067h426.667c9.421 0 17.067 7.629 17.067 17.067s-7.646 17.067-17.067 17.067zM725.333 174.933h-426.667c-9.421 0-17.067-7.629-17.067-17.067s7.646-17.067 17.067-17.067h426.667c9.421 0 17.067 7.629 17.067 17.067s-7.646 17.067-17.067 17.067zM664.132 960h-553.199v-1024h802.133v775.066l-248.934 248.934zM674.133 901.734l180.668-180.668h-180.668v180.668zM145.067-29.867v955.733h494.933v-238.933h238.933v-716.8h-733.867z" />
<glyph unicode="&#xe906;" glyph-name="lupa" d="M1015.031-11.778l-248.848 248.848c66.753 76.743 107.168 176.873 107.168 286.311 0 240.901-195.945 436.619-436.619 436.619-240.901 0-436.619-195.945-436.619-436.619s195.945-436.619 436.619-436.619c109.439 0 209.568 40.415 286.311 107.168l248.848-248.848c5.903-5.903 13.85-9.082 21.57-9.082s15.667 2.952 21.57 9.082c11.807 11.807 11.807 31.333 0 43.14zM61.19 523.381c0 207.071 168.472 375.315 375.315 375.315 207.071 0 375.315-168.472 375.315-375.315s-168.245-375.542-375.315-375.542c-206.843 0-375.315 168.472-375.315 375.542z" />
<glyph unicode="&#xe907;" glyph-name="auto-3" d="M1024 226.91v256.002c0 39.561-30.253 69.816-69.818 69.816h-11.639c-11.637 0-20.947 6.982-23.271 16.29l-81.451 283.927v2.327c-18.62 41.892-60.51 69.816-107.055 69.816h-437.529c-46.547 0-88.437-27.927-107.055-69.816v-2.327l-81.455-283.927c-4.655-9.308-13.963-16.29-23.271-16.29h-11.639c-39.563 0-69.816-30.253-69.816-69.816v-256.002c0-39.563 30.253-69.818 69.816-69.818v-116.361c0-39.563 30.253-69.818 69.818-69.818h46.545c39.565 0 69.816 30.253 69.816 69.818v116.361h512v-116.361c0-39.563 30.253-69.818 69.818-69.818h46.549c39.561 0 69.814 30.253 69.814 69.818v116.361c39.569 0 69.822 30.255 69.822 69.818zM209.455 40.731c0-13.963-9.308-23.271-23.271-23.271h-46.545c-13.963 0-23.271 9.308-23.271 23.271v116.361h93.092v-116.361h-0.004zM907.637 40.731c0-13.963-9.308-23.271-23.269-23.271h-46.547c-13.963 0-23.271 9.308-23.271 23.271v116.361h93.090l-0.002-116.361zM977.455 226.91c0-13.963-9.308-23.271-23.271-23.271h-884.367c-13.963 0-23.271 9.308-23.271 23.271v256.002c0 13.963 9.306 23.267 23.271 23.267h11.637c30.253 0 58.184 20.947 67.492 51.202l81.455 281.602c11.639 23.271 34.908 39.563 62.837 39.563h437.529c25.6 0 51.202-13.963 62.837-39.563l81.455-281.602c9.308-30.251 37.235-51.202 67.488-51.202h11.639c13.963 0 23.271-9.304 23.271-23.267v-256.002zM209.455 459.639c-51.202 0-93.092-41.89-93.092-93.092 0-51.2 41.89-93.090 93.092-93.090 51.2 0 93.092 41.89 93.092 93.090 0 51.202-41.892 93.092-93.092 93.092zM209.455 320c-25.6 0-46.547 20.947-46.547 46.547 0 25.602 20.947 46.549 46.547 46.549s46.545-20.947 46.545-46.549c0-25.6-20.945-46.547-46.545-46.547zM814.549 459.639c-51.202 0-93.090-41.89-93.090-93.092 0-51.2 41.888-93.090 93.090-93.090s93.090 41.89 93.090 93.090c0 51.202-41.892 93.092-93.090 93.092zM814.549 320c-25.602 0-46.547 20.947-46.547 46.547 0 25.602 20.945 46.549 46.547 46.549 25.6 0 46.547-20.947 46.547-46.549-0.002-25.6-20.949-46.547-46.547-46.547zM558.547 343.276h-93.092c-13.963 0-23.271-9.31-23.271-23.271s9.306-23.271 23.271-23.271h93.092c13.963 0 23.271 9.31 23.271 23.271 0 13.959-9.308 23.271-23.271 23.271zM605.090 436.361h-186.184c-13.963 0-23.271-9.304-23.271-23.267s9.308-23.271 23.271-23.271h186.184c13.963 0 23.271 9.308 23.271 23.271 0.002 13.963-9.306 23.267-23.271 23.267zM288.584 552.729h449.161c13.963 0 27.929 6.982 37.241 18.618 9.31 11.639 11.637 27.929 6.982 41.892l-55.855 186.182c-4.657 18.62-23.273 32.582-44.222 32.582h-337.453c-20.945 0-37.239-11.637-44.22-32.582l-55.853-186.182c-4.655-13.963-2.327-30.253 6.982-41.892 9.31-11.635 23.273-18.618 37.239-18.618zM344.437 785.457h337.455l55.851-186.184h-449.159l55.853 186.184z" />
<glyph unicode="&#xe908;" glyph-name="vida" d="M1022.306 640.139c-14.947 164.519-131.395 283.881-277.126 283.881-97.089 0-185.985-52.247-236.006-135.983-49.568 84.82-134.821 136.003-230.354 136.003-145.712 0-262.179-119.362-277.106-283.881-1.182-7.267-6.026-45.512 8.705-107.881 21.23-89.96 70.266-171.786 141.773-236.577l356.747-323.741 362.871 323.721c71.507 64.811 120.544 146.618 141.773 236.597 14.731 62.349 9.886 100.594 8.724 107.861zM975.239 541.298c-19.378-82.161-64.299-157.016-129.78-216.332l-336.285-300.030-330.515 299.951c-65.599 59.435-110.5 134.27-129.898 216.431-13.943 59.021-8.212 92.362-8.192 92.579l0.295 1.989c12.801 144.136 112.863 248.768 237.956 248.768 92.303 0 173.558-56.717 212.118-147.996l18.138-42.991 18.138 42.991c37.949 89.881 123.498 147.977 217.987 147.977 125.073 0 225.155-104.631 238.212-250.638 0.039-0.315 5.77-33.676-8.173-92.697z" />
<glyph unicode="&#xe909;" glyph-name="hogar" d="M874.667-42.666h-256.001c-11.792 0-21.334 9.541-21.334 21.334v277.333h-170.666v-277.333c0-11.792-9.541-21.334-21.334-21.334h-256c-11.792 0-21.334 9.541-21.334 21.334v426.666c0 11.792 9.541 21.334 21.334 21.334s21.334-9.541 21.334-21.334v-405.334h213.334v277.333c0 11.792 9.541 21.334 21.334 21.334h213.334c11.792 0 21.334-9.541 21.334-21.334v-277.333h213.334v384c0 11.792 9.541 21.334 21.334 21.334s21.334-9.541 21.334-21.334v-405.334c-0.004-11.79-9.545-21.332-21.336-21.332zM1002.666 405.333c-5.457 0-10.917 2.084-15.082 6.249l-475.585 475.583-475.583-475.583c-8.333-8.333-21.833-8.333-30.167 0s-8.333 21.833 0 30.167l490.667 490.667c8.333 8.333 21.833 8.333 30.167 0l490.667-490.667c8.333-8.333 8.333-21.833 0-30.167-4.168-4.166-9.625-6.249-15.084-6.249zM832 704c-11.792 0-21.334 9.541-21.334 21.334v127.999h-128.001c-11.792 0-21.334 9.541-21.334 21.334s9.541 21.334 21.334 21.334h149.334c11.792 0 21.334-9.541 21.334-21.334v-149.333c0-11.792-9.541-21.334-21.334-21.334z" />
<glyph unicode="&#xe90a;" glyph-name="embarcacion" d="M1019.071 159.772c-4.409 5.66-11.182 8.954-18.34 8.954h-535.275v46.545h488.728c12.864 0 23.273 10.409 23.273 23.273 0 472.733-421.242 638.51-512.001 668.728v29.455c0 12.864-10.409 23.273-23.273 23.273h-139.636c-6.181 0-12.092-2.455-16.455-6.818l-46.545-46.545c-9.092-9.092-9.092-23.819 0-32.908l46.545-46.545c4.364-4.364 10.272-6.818 16.455-6.818h116.363v-108.181l-367.272-459.094c-5.592-6.999-6.659-16.569-2.795-24.637 3.886-8.047 12.022-13.183 20.978-13.183h349.091v-46.545h-395.638c-12.864 0-23.273-10.409-23.273-23.273v-116.363c0-51.34 41.749-93.092 93.092-93.092l669.227 0.046c123.613 0 230.933 83.795 260.978 203.749 1.75 6.956 0.183 14.319-4.226 19.979zM465.456 858.478c105.227-36.5 452.365-187.682 465.092-596.66h-465.092v596.66zM312.183 866.908l-23.273 23.273 23.273 23.273h106.728v-46.547h-106.728zM118.252 261.818l300.659 375.84v-375.84h-300.659zM762.321-17.409l-669.23-0.046c-25.658 0-46.545 20.887-46.545 46.545v93.092l922.229-0.068c-33.432-83.455-114.5-139.523-206.455-139.523z" />
<glyph unicode="&#xe90b;" glyph-name="mercaderia" d="M982.936 718.588c0 3.89-0.864 7.78-2.593 11.455-3.458 7.348-10.158 12.319-17.506 13.832l-440.247 213.531c-7.132 3.458-15.561 3.458-22.693 0l-444.569-215.477c-8.645-4.106-14.264-12.751-14.696-22.477v-0.216c0-0.216 0-0.432 0-0.864v-540.745c0-9.942 5.619-19.019 14.696-23.341l444.569-215.477c0.216 0 0.216 0 0.432-0.216 0.648-0.216 1.297-0.432 1.945-0.864 0.216 0 0.432-0.216 0.864-0.216 0.648-0.216 1.297-0.432 1.945-0.648 0.216 0 0.432-0.216 0.648-0.216 0.648-0.216 1.513-0.216 2.161-0.432 0.216 0 0.432 0 0.648 0 0.864 0 1.945-0.216 2.81-0.216s1.945 0 2.81 0.216c0.216 0 0.432 0 0.648 0 0.648 0 1.513 0.216 2.161 0.432 0.216 0 0.432 0.216 0.648 0.216 0.648 0.216 1.297 0.432 1.945 0.648 0.216 0 0.432 0.216 0.864 0.216 0.648 0.216 1.297 0.432 1.945 0.864 0.216 0 0.216 0 0.432 0.216l445.866 216.125c8.861 4.322 14.696 13.4 14.696 23.341v539.664c-0.432 0.216-0.432 0.432-0.432 0.648zM511.136 905.32l385.567-186.948-141.994-68.944-385.567 186.948 141.994 68.944zM511.136 531.424l-385.567 186.948 184.138 89.26 385.567-186.948-184.138-89.26zM92.501 676.66l392.699-190.406v-482.607l-392.699 190.406v482.607zM537.070 3.647v482.607l184.355 89.476v-126.217c0-14.264 11.671-25.935 25.935-25.935s25.935 11.671 25.935 25.935v151.504l157.771 76.508v-482.607l-393.996-191.271z" />
<glyph unicode="&#xe90c;" glyph-name="consorcio" d="M1006.932 738.133h-51.199v17.066c0 10.24-6.826 17.066-17.066 17.066s-17.066-6.826-17.066-17.066v-17.066h-68.267v17.066c0 10.24-6.826 17.066-17.066 17.066s-17.066-6.826-17.066-17.066v-17.066h-68.267v153.6c0 10.24-6.826 17.066-17.066 17.066h-153.6v17.066c0 10.24-6.826 17.066-17.066 17.066s-17.066-6.826-17.066-17.066v-17.066h-68.267v17.066c0 10.24-6.826 17.066-17.066 17.066s-17.066-6.826-17.066-17.066v-17.066h-153.6c-10.24 0-17.066-6.826-17.066-17.066v-153.6h-68.275v17.066c0 10.24-6.826 17.066-17.066 17.066s-17.066-6.826-17.066-17.066v-17.066h-68.267v17.066c0 10.24-6.826 17.066-17.066 17.066s-17.066-6.826-17.066-17.066v-17.066h-51.203c-10.24 0-17.066-6.826-17.066-17.066v-750.934c0-10.24 6.826-17.066 17.066-17.066h989.864c10.24 0 17.066 6.826 17.066 17.066v750.934c0.004 10.24-6.824 17.066-17.064 17.066zM989.866 703.999v-580.266h-238.935v580.266h238.935zM34.134 703.999h238.933v-580.266h-238.933v580.266zM34.134 89.6h238.933v-102.401h-238.933v102.401zM307.2 106.668v767.999h409.6v-887.466h-51.199v153.6c0 10.24-6.826 17.066-17.066 17.066h-273.068c-10.24 0-17.066-6.826-17.066-17.066v-153.6h-51.199v119.466zM392.533 123.733h102.401v-136.534h-102.401v136.534zM529.067-12.799v136.534h102.401v-136.534h-102.401zM989.866-12.799h-238.935v102.401h238.935v-102.401zM409.6 686.934h34.134c18.774 0 34.134 15.36 34.134 34.134v34.134c0 18.774-15.36 34.134-34.134 34.134h-34.134c-18.774 0-34.134-15.36-34.134-34.134v-34.134c0-18.774 15.36-34.134 34.134-34.134zM409.6 755.201h34.134v-34.134h-34.134v34.134zM580.266 686.934h34.134c18.774 0 34.134 15.36 34.134 34.134v34.134c0 18.774-15.36 34.134-34.134 34.134h-34.134c-18.774 0-34.134-15.36-34.134-34.134v-34.134c0-18.774 15.36-34.134 34.134-34.134zM580.266 755.201h34.134v-34.134h-34.134v34.134zM409.6 550.4h34.134c18.774 0 34.134 15.36 34.134 34.134v34.134c0 18.774-15.36 34.134-34.134 34.134h-34.134c-18.774 0-34.134-15.36-34.134-34.134v-34.134c0-18.774 15.36-34.134 34.134-34.134zM409.6 618.667h34.134v-34.134h-34.134v34.134zM580.266 550.4h34.134c18.774 0 34.134 15.36 34.134 34.134v34.134c0 18.774-15.36 34.134-34.134 34.134h-34.134c-18.774 0-34.134-15.36-34.134-34.134v-34.134c0-18.774 15.36-34.134 34.134-34.134zM580.266 618.667h34.134v-34.134h-34.134v34.134zM409.6 413.867h34.134c18.774 0 34.134 15.36 34.134 34.134v34.134c0 18.774-15.36 34.134-34.134 34.134h-34.134c-18.774 0-34.134-15.36-34.134-34.134v-34.134c0-18.774 15.36-34.134 34.134-34.134zM409.6 482.135h34.134v-34.134h-34.134v34.134zM580.266 413.867h34.134c18.774 0 34.134 15.36 34.134 34.134v34.134c0 18.774-15.36 34.134-34.134 34.134h-34.134c-18.774 0-34.134-15.36-34.134-34.134v-34.134c0-18.774 15.36-34.134 34.134-34.134zM580.266 482.135h34.134v-34.134h-34.134v34.134zM409.6 277.333h34.134c18.774 0 34.134 15.36 34.134 34.134v34.134c0 18.774-15.36 34.134-34.134 34.134h-34.134c-18.774 0-34.134-15.36-34.134-34.134v-34.134c0-18.774 15.36-34.134 34.134-34.134zM409.6 345.6h34.134v-34.134h-34.134v34.134zM580.266 277.333h34.134c18.774 0 34.134 15.36 34.134 34.134v34.134c0 18.774-15.36 34.134-34.134 34.134h-34.134c-18.774 0-34.134-15.36-34.134-34.134v-34.134c0-18.774 15.36-34.134 34.134-34.134zM580.266 345.6h34.134v-34.134h-34.134v34.134zM853.332 567.467h34.134c18.774 0 34.134 15.36 34.134 34.134v34.134c0 18.774-15.36 34.134-34.134 34.134h-34.134c-18.774 0-34.134-15.36-34.134-34.134v-34.134c0-18.774 15.36-34.134 34.134-34.134zM853.332 635.734h34.134v-34.134h-34.134v34.134zM853.332 430.933h34.134c18.774 0 34.134 15.36 34.134 34.134v34.134c0 18.774-15.36 34.134-34.134 34.134h-34.134c-18.774 0-34.134-15.36-34.134-34.134v-34.134c0-18.774 15.36-34.134 34.134-34.134zM853.332 499.2h34.134v-34.134h-34.134v34.134zM853.332 294.401h34.134c18.774 0 34.134 15.36 34.134 34.134v34.134c0 18.774-15.36 34.134-34.134 34.134h-34.134c-18.774 0-34.134-15.36-34.134-34.134v-34.134c0-18.774 15.36-34.134 34.134-34.134zM853.332 362.668h34.134v-34.134h-34.134v34.134zM853.332 157.867h34.134c18.774 0 34.134 15.36 34.134 34.134v34.134c0 18.774-15.36 34.134-34.134 34.134h-34.134c-18.774 0-34.134-15.36-34.134-34.134v-34.134c0-18.774 15.36-34.134 34.134-34.134zM853.332 226.134h34.134v-34.134h-34.134v34.134zM170.666 669.866h-34.132c-18.774 0-34.134-15.36-34.134-34.134v-34.134c0-18.774 15.36-34.134 34.134-34.134h34.134c18.774 0 34.134 15.36 34.134 34.134v34.134c-0.002 18.774-15.362 34.134-34.136 34.134zM170.666 601.601h-34.132v34.134h34.134v-34.134zM170.666 533.334h-34.132c-18.774 0-34.134-15.36-34.134-34.134v-34.134c0-18.774 15.36-34.134 34.134-34.134h34.134c18.774 0 34.134 15.36 34.134 34.134v34.134c-0.002 18.774-15.362 34.134-34.136 34.134zM170.666 465.067h-34.132v34.134h34.134v-34.134zM170.666 396.8h-34.132c-18.774 0-34.134-15.36-34.134-34.134v-34.134c0-18.774 15.36-34.134 34.134-34.134h34.134c18.774 0 34.134 15.36 34.134 34.134v34.136c-0.002 18.772-15.362 34.132-34.136 34.132zM170.666 328.535h-34.132v34.134h34.134v-34.134zM170.666 260.268h-34.132c-18.774 0-34.134-15.36-34.134-34.134v-34.134c0-18.774 15.36-34.134 34.134-34.134h34.134c18.774 0 34.134 15.36 34.134 34.134v34.134c-0.002 18.774-15.362 34.134-34.136 34.134zM170.666 192.001h-34.132v34.134h34.134v-34.134z" />
<glyph unicode="&#xe90d;" glyph-name="comercio" d="M727.513 408.141h-139.142c-38.081 0-69.048-30.967-69.048-69.048v-106.71c0-38.081 30.967-69.048 69.048-69.048h139.142c38.081 0 69.048 30.967 69.048 69.048v106.71c0 38.081-30.967 69.048-69.048 69.048zM746.344 232.383c0-10.462-8.579-18.831-18.831-18.831h-139.142c-10.462 0-18.831 8.579-18.831 18.831v106.71c0 10.462 8.579 18.831 18.831 18.831h139.142c10.462 0 18.831-8.579 18.831-18.831v-106.71zM1024 602.102c0 4.394-1.046 8.579-3.348 12.345l-152.324 267.822c-4.394 7.742-12.763 12.763-21.761 12.763h-669.345c-8.997 0-17.367-4.812-21.761-12.763l-152.114-267.822c-2.092-3.766-3.348-7.951-3.348-12.345 0-60.051 36.198-111.523 87.879-134.329v-441.697c0-13.81 11.299-25.108 25.108-25.108h138.723c0.209 0 0.418 0 0.628 0h194.589c0.209 0 0.418 0 0.628 0h463.248c13.81 0 25.108 11.299 25.108 25.108v438.558c0 1.046 0 1.883-0.209 2.72 51.89 22.807 88.298 74.488 88.298 134.748zM191.869 844.606h640.052l119.055-209.445h-877.953l118.846 209.445zM728.768 585.154c-7.951-45.195-47.497-79.51-94.993-79.51s-87.042 34.315-94.993 79.51h189.986zM485.427 585.154c-7.951-45.195-47.497-79.51-94.993-79.51s-87.042 34.315-95.202 79.51h190.195zM51.89 585.154h190.195c-7.951-45.195-47.706-79.51-95.202-79.51-47.497-0.209-87.042 34.315-94.993 79.51zM421.819 51.184h-144.373v270.96c0 19.668 15.902 35.779 35.779 35.779h73.023c19.668 0 35.779-15.902 35.779-35.779v-270.96h-0.209zM885.695 51.184h-413.659v270.96c0 47.287-38.499 85.996-85.996 85.996h-73.023c-47.287 0-85.996-38.499-85.996-85.996v-271.17h-88.925v404.453c2.929-0.209 5.859-0.209 8.788-0.209 50.635 0 95.412 25.736 121.775 64.863 26.364-39.127 71.14-64.863 121.775-64.863s95.202 25.736 121.775 64.863c26.364-39.127 71.14-64.863 121.566-64.863 50.635 0 95.202 25.736 121.566 64.863 26.364-39.127 71.14-64.863 121.775-64.863 2.929 0 5.649 0.209 8.579 0.209v-404.244zM877.116 505.435c-47.497 0-87.042 34.315-94.993 79.51h190.195c-8.16-44.986-47.706-79.51-95.202-79.51z" />
<glyph unicode="&#xe90e;" glyph-name="avion" d="M984.105 920.038c-53.211 53.234-139.501 53.253-192.735 0.042-0.338-0.338-0.671-0.675-1.005-1.015l-172.038-200.712-133.53 40.057c9.1 10.227 14.104 23.455 14.053 37.145 0.226 15.33-5.808 30.090-16.708 40.872-22.442 22.406-58.789 22.406-81.233 0l-40.654-40.654-46.618 13.986 1.203 1.203c22.277 22.495 22.277 58.736 0 81.233-22.442 22.406-58.789 22.406-81.233 0l-44.943-44.945-80.851 24.255c-44.303 13.287-90.989-11.856-104.276-56.159-10.446-34.832 2.779-72.426 32.734-93.045l368.372-253.242-152.56-177.985-149.443-16.043c-13.787-0.952-25.73-9.917-30.495-22.889-5.111-15.309-0.926-32.194 10.746-43.341l55.011-55.020c-13.971-30.143-0.861-65.905 29.282-79.876 16.045-7.437 34.549-7.437 50.592 0l54.959-54.959c8.024-8.186 18.962-12.865 30.425-13.015 4.409-0.011 8.786 0.762 12.926 2.277 12.846 4.67 21.779 16.419 22.845 30.048l16.079 149.799 178.030 152.595 253.242-368.361c14.068-20.504 36.543-33.669 61.307-35.912 2.585-0.228 5.154-0.352 7.72-0.352 46.3 0.082 83.765 37.683 83.683 83.983-0.015 8.074-1.194 16.104-3.505 23.841l-24.25 80.83 44.932 44.941c22.429 22.353 22.492 58.656 0.139 81.085-10.736 10.771-25.31 16.837-40.517 16.862-15.342 0.317-30.132-5.734-40.853-16.716l-1.194-1.194-13.988 46.625 40.648 40.648c22.406 22.442 22.406 58.789 0 81.233-10.634 10.807-25.2 16.837-40.361 16.708-13.829-0.023-27.19-5.021-37.643-14.076l-40.064 133.539 200.708 172.034c0.352 0.3 0.703 0.616 1.019 0.941 53.232 53.209 53.251 139.498 0.042 192.733zM426.375 810.961c8.374 8.347 21.923 8.351 30.301 0.008 4.084-4.073 6.31-9.649 6.156-15.416 0.059-5.599-2.163-10.978-6.156-14.906l-10.622-10.617-46.62 13.986 26.941 26.945zM259.075 866.73c8.374 8.353 21.929 8.353 30.301 0 4.084-4.067 6.312-9.636 6.156-15.397 0.059-5.599-2.163-10.978-6.156-14.906l-14.92-14.914-46.614 13.983 31.234 31.234zM56.672 751.977c-21.695 14.986-27.131 44.721-12.143 66.414 11.755 17.014 33.129 24.527 52.943 18.607l495.214-148.558-164.466-191.876-371.548 255.413zM159.526 183.090l-51.168 51.175c-2.638 2.646-2.585 4.915-2.338 4.915h0.017l111.859 12.006-58.369-68.096zM303.693 42.017c-2.115-0.171-4.174 0.726-5.487 2.391l-51.126 51.126 68.227 58.481-11.613-111.998zM900.403 225.393c4.134 3.972 9.655 6.179 15.389 6.156 5.601 0.046 10.98-2.178 14.914-6.164 8.353-8.374 8.353-21.929 0-30.301l-31.221-31.225-13.988 46.623 14.906 14.912zM844.636 392.691c3.993 4.016 9.444 6.238 15.106 6.156h0.3c5.603 0.097 10.995-2.131 14.895-6.156 8.353-8.374 8.353-21.929 0-30.301l-26.937-26.937-13.986 46.614 10.622 10.624zM848.397 208.769l0.004-0.013 52.582-175.261c7.585-25.244-6.732-51.854-31.977-59.439-19.85-5.964-41.281 1.568-53.038 18.639l-255.422 371.529 191.87 164.46 95.98-319.915zM959.072 753.242v0l-631.79-541.528c-0.509-0.388-0.994-0.806-1.456-1.247l-117.031-100.311c-10.305-8.834-25.821-7.644-34.655 2.661-7.889 9.201-7.893 22.779-0.008 31.983l100.61 117.39c0.268 0.308 0.534 0.587 0.779 0.91l541.239 631.513c39.169 39.169 102.672 39.169 141.841 0.002 38.987-38.985 39.196-102.128 0.471-141.372z" />
<glyph unicode="&#xe90f;" glyph-name="art" d="M1024 185.709c0 48.421-6.75 96.305-20.061 142.321l-3.68 12.717h-37.224c-3.477 91.537-34.049 178.311-88.959 251.95-54.519 73.115-131.423 128.968-217.365 158.092l4.078 56.777-13.92 3.837c-43.736 12.055-89.107 18.167-134.856 18.167-45.745 0-91.119-6.112-134.854-18.167l-13.922-3.837 4.078-56.777c-85.951-29.123-162.863-84.977-217.386-158.092-54.913-73.636-85.487-160.409-88.964-251.95h-37.225l-3.68-12.717c-13.31-46.016-20.060-93.901-20.060-142.321v-17.61h236.816l66.403-101.671h417.563l66.403 101.671h236.816v17.61zM845.839 571.643c50.341-67.51 78.489-147.004 81.945-230.896h-300.519l26.83 373.622c75.721-27.592 143.305-77.766 191.743-142.726zM512.013 794.349c37.743 0 75.202-4.468 111.559-13.291l-31.618-440.311h-159.878l-31.622 440.311c36.357 8.823 73.818 13.291 111.559 13.291zM178.164 571.643c48.443 64.961 116.036 115.134 191.767 142.73l26.834-373.623h-300.55c3.458 83.891 31.606 163.386 81.949 230.894zM701.717 101.651h-379.434l-43.398 66.448h466.23l-43.398-66.448zM35.541 203.32c1.262 34.661 6.245 68.92 14.868 102.205h923.181c8.625-33.285 13.606-67.544 14.866-102.205h-952.915z" />
<glyph unicode="&#xe910;" glyph-name="pesos" d="M771.105 336.579c-4.946 16.747-10.946 31.322-17.994 43.699-7.043 12.389-17.131 24.474-30.283 36.295-13.136 11.815-24.953 21.33-35.431 28.564-10.472 7.239-24.857 15.334-43.147 24.292-18.274 8.957-32.753 15.622-43.411 20.005-10.672 4.377-26.11 10.378-46.303 17.998-17.904 6.853-31.234 12.093-40.004 15.71-8.761 3.621-20.281 8.761-34.568 15.432-14.281 6.661-24.949 12.57-31.998 17.709-7.047 5.14-14.569 11.425-22.571 18.852s-13.62 15.334-16.861 23.714c-3.232 8.382-4.854 17.527-4.854 27.433 0 25.9 11.425 47.050 34.282 63.426 22.859 16.376 52.388 24.569 88.581 24.569 15.992 0 32.296-2.188 48.857-6.573s30.753-9.325 42.564-14.853c11.821-5.528 22.959-11.625 33.439-18.288 10.478-6.669 17.904-11.713 22.289-15.141 4.381-3.431 7.157-5.714 8.288-6.859 4.96-3.809 10.090-5.14 15.424-4.001 5.712 0.38 10.098 3.433 13.152 9.141l46.295 83.431c4.569 7.616 3.625 14.855-2.856 21.716-2.29 2.286-5.136 4.95-8.588 8-3.419 3.050-10.85 8.572-22.289 16.577-11.427 7.998-23.522 15.141-36.275 21.428-12.768 6.281-29.344 12.666-49.728 19.138-20.371 6.483-41.425 10.86-63.146 13.144v100.578c0 5.33-1.711 9.713-5.13 13.144-3.427 3.423-7.81 5.142-13.152 5.142h-77.15c-4.952 0-9.237-1.807-12.856-5.428s-5.428-7.904-5.428-12.858v-102.86c-59.813-11.425-108.386-36.95-145.72-76.57-37.33-39.622-56.002-85.711-56.002-138.289 0-15.618 1.625-30.475 4.864-44.564 3.234-14.101 7.237-26.768 12.001-38.005 4.76-11.244 11.525-22.289 20.285-33.149 8.761-10.856 17.049-20.191 24.857-27.997 7.812-7.804 18.004-15.902 30.571-24.28 12.576-8.386 23.338-15.153 32.292-20.293 8.957-5.124 20.86-11.048 35.713-17.699 14.857-6.671 26.576-11.713 35.149-15.149 8.572-3.425 20.285-8.192 35.149-14.275 20.57-8 35.811-14.193 45.715-18.576 9.911-4.383 22.479-10.478 37.727-18.288 15.234-7.802 26.372-14.947 33.425-21.426 7.047-6.479 13.426-14.479 19.144-24s8.582-19.617 8.582-30.289c0-30.097-11.715-53.33-35.151-69.699-23.426-16.386-50.578-24.577-81.432-24.577-14.083 0-28.189 1.515-42.28 4.561-49.525 9.917-95.81 33.727-138.859 71.44l-1.143 1.143c-3.431 4.179-8.004 5.896-13.712 5.13-6.097-0.761-10.48-3.048-13.144-6.865l-58.86-77.138c-5.716-7.618-5.33-15.426 1.145-23.426 1.907-2.288 5.24-5.724 10-10.288 4.772-4.581 13.63-11.713 26.576-21.446 12.95-9.719 27.046-18.85 42.288-27.433 15.24-8.568 34.57-17.041 58.004-25.425 23.434-8.37 47.714-14.273 72.859-17.699v-100.002c0-4.96 1.811-9.241 5.428-12.864 3.621-3.625 7.904-5.426 12.856-5.426h77.15c5.342 0 9.725 1.711 13.15 5.136s5.13 7.808 5.13 13.152v100.002c60.584 9.903 109.823 35.905 147.724 78.003 37.905 42.098 56.863 92.29 56.863 150.572-0.020 19.044-2.492 36.95-7.492 53.723z" />
<glyph unicode="&#xe911;" glyph-name="confirmar" d="M1003.932 799.196c-26.758 26.758-67.924 26.758-94.681 0l-559.855-559.855-234.645 232.587c-26.758 26.758-67.924 26.758-94.681 0s-26.758-67.924 0-94.681l281.986-279.928c12.35-12.35 30.874-20.583 47.341-20.583s34.991 8.233 47.341 20.583l607.196 605.138c26.758 26.758 26.758 69.982 0 96.74z" />
<glyph unicode="&#xe912;" glyph-name="clonar" d="M928.637 960h-659.674c-52.583 0-95.363-42.78-95.363-95.363v-78.238h-78.236c0 0-0.002 0-0.004 0-25.459 0-49.402-9.922-67.419-27.938s-27.94-41.962-27.94-67.423v-659.676c0-52.583 42.78-95.361 95.363-95.361h659.676c52.583 0 95.363 42.778 95.363 95.363v78.238h78.238c52.585 0 95.363 42.782 95.363 95.365v659.67c-0.004 52.583-42.786 95.363-95.367 95.363zM755.040-12.153h-659.676c-23.996 0-43.516 19.523-43.516 43.516v659.674c0 23.996 19.523 43.516 43.516 43.516h659.676c23.994 0 43.516-19.523 43.516-43.516v-659.674c0-23.996-19.521-43.516-43.516-43.516zM755.038 786.401h-529.594v78.236c0 23.996 19.523 43.516 43.516 43.516h659.676c23.994 0 43.516-19.523 43.516-43.516l0.002-659.674c0-23.994-19.523-43.516-43.516-43.516h-78.238v529.592c0 52.583-42.78 95.363-95.363 95.363z" />
<glyph unicode="&#xe913;" glyph-name="cerrar" d="M863.632 676.567l-228.537-228.561 228.537-228.552c33.998-34.010 33.998-89.094 0-123.101-16.981-16.984-39.256-25.485-61.508-25.485-22.296 0-44.568 8.486-61.54 25.485l-228.587 228.579-228.573-228.579c-16.981-16.984-39.253-25.482-61.531-25.482-22.269 0-44.526 8.486-61.525 25.482-33.992 33.992-33.992 89.082 0 123.101l228.534 228.552-228.546 228.561c-33.992 33.995-33.992 89.094 0 123.089 33.989 33.969 89.056 33.969 123.057 0l228.582-228.564 228.564 228.564c34.010 33.969 89.079 33.969 123.062 0 34.007-33.992 34.007-89.094 0.012-123.089z" />
<glyph unicode="&#xe914;" glyph-name="lista" d="M168.392 828.352c-10.078 10.078-26.246 10.078-36.324 0.21-10.288-10.078-10.288-26.246-0.21-36.324l61.31-61.73c4.829-4.829 11.338-7.559 18.267-7.559v0c6.719 0 13.228 2.73 18.057 7.559l186.659 185.609c10.078 10.078 10.078 26.246 0.21 36.324-10.078 10.078-26.246 10.078-36.324 0l-56.481-56.061c-30.025 31.075-71.808 48.922-115.691 48.922-88.815 0-161.043-72.228-161.043-161.043s72.228-161.043 161.043-161.043c71.598 0 133.538 45.982 154.324 114.431 4.199 13.648-3.569 27.925-17.217 32.125-13.648 3.989-27.925-3.569-32.125-17.217-13.858-45.772-57.111-77.897-104.983-77.897-60.47 0-109.602 49.132-109.602 109.602s49.132 109.602 109.602 109.602c30.025 0 58.58-12.598 79.157-34.014l-75.377-74.958-43.253 43.463zM207.865 601.799c-88.815 0-161.043-72.228-161.043-161.043s72.228-161.043 161.043-161.043 161.043 72.228 161.043 161.043-72.228 161.043-161.043 161.043zM207.865 331.154c-60.47 0-109.602 49.132-109.602 109.602s49.132 109.602 109.602 109.602 109.602-49.132 109.602-109.602-49.132-109.602-109.602-109.602zM368.909 97.043c0 88.815-72.228 161.043-161.043 161.043s-161.043-72.228-161.043-161.043 72.228-161.043 161.043-161.043 161.043 72.228 161.043 161.043zM207.865-12.769c-60.47 0-109.602 49.132-109.602 109.602s49.132 109.602 109.602 109.602 109.602-49.132 109.602-109.602-49.132-109.602-109.602-109.602zM951.352 466.582h-500.347c-14.278 0-25.826-11.548-25.826-25.826s11.548-25.826 25.826-25.826h500.347c14.278 0 25.826 11.548 25.826 25.826s-11.548 25.826-25.826 25.826zM951.352 809.875h-500.347c-14.278 0-25.826-11.548-25.826-25.826s11.548-25.826 25.826-25.826h500.347c14.278 0 25.826 11.548 25.826 25.826s-11.548 25.826-25.826 25.826zM951.352 122.659h-500.347c-14.278 0-25.826-11.548-25.826-25.826s11.548-25.826 25.826-25.826h500.347c14.278 0 25.826 11.548 25.826 25.826 0 14.488-11.548 25.826-25.826 25.826z" />
<glyph unicode="&#xe915;" glyph-name="lista-2" d="M383.36 736.32l608-0.641c17.665 0 31.999 14.337 31.999 31.999 0 17.665-14.337 31.999-31.999 31.999l-608 0.641c-17.665 0-31.999-14.337-31.999-31.999s14.334-31.999 31.999-31.999zM991.998 479.999l-608 0.641c-17.665 0-31.999-14.337-31.999-31.999 0-17.665 14.337-31.999 31.999-31.999l608-0.641c17.665 0 31.999 14.337 31.999 31.999s-14.334 31.999-31.999 31.999zM991.998 160l-608 0.641c-17.665 0-31.999-14.337-31.999-31.999s14.337-31.999 31.999-31.999l608-0.641c17.665 0 31.999 14.337 31.999 31.999 0.003 17.665-14.334 31.999-31.999 31.999zM127.68 895.361c-70.529 0-127.68-57.152-127.68-127.68s57.152-127.68 127.68-127.68 127.68 57.152 127.68 127.68-57.152 127.68-127.68 127.68zM127.361 703.679c-35.968 0-64.799 28.033-64.799 64.001s28.831 64.001 64.799 64.001 63.998-28.033 63.998-64.001-28.031-64.001-63.998-64.001zM127.68 575.361c-70.529 0-127.68-57.152-127.68-127.68s57.152-127.68 127.68-127.68 127.68 57.152 127.68 127.68-57.152 127.68-127.68 127.68zM127.361 383.68c-35.968 0-64.799 28.033-64.799 64.001s28.831 64.001 64.799 64.001 64.001-28.033 64.001-64.001c-0.003-35.968-28.033-64.001-64.001-64.001zM127.68 256c-70.529 0-127.68-57.152-127.68-127.68s57.152-127.68 127.68-127.68 127.68 57.152 127.68 127.68-57.152 127.68-127.68 127.68zM127.361 64.321c-35.968 0-64.799 28.033-64.799 64.001s28.831 64.001 64.799 64.001 64.001-28.033 64.001-64.001-28.033-64.001-64.001-64.001z" />
<glyph unicode="&#xe916;" glyph-name="calculadora" d="M370.759 712.828h-88.276v88.276c0 9.763-7.91 17.655-17.655 17.655s-17.655-7.892-17.655-17.655v-88.276h-88.276c-9.746 0-17.655-7.892-17.655-17.655s7.91-17.655 17.655-17.655h88.276v-88.276c0-9.763 7.91-17.655 17.655-17.655s17.655 7.892 17.655 17.655v88.276h88.276c9.746 0 17.655 7.892 17.655 17.655s-7.91 17.655-17.655 17.655zM865.103 712.828h-211.862c-9.746 0-17.655-7.892-17.655-17.655s7.91-17.655 17.655-17.655h211.862c9.746 0 17.655 7.892 17.655 17.655s-7.91 17.655-17.655 17.655zM529.655 960h-529.655v-1024h1024v1024h-494.345zM35.31 924.69h459.034v-459.034h-459.034v459.034zM35.31-28.69v459.034h459.034v-459.034h-459.034zM988.69-28.69h-459.034v459.034h459.034v-459.034zM529.655 465.655v459.034h459.034v-459.034h-459.034zM653.241 130.207h211.862c9.746 0 17.655 7.892 17.655 17.655s-7.91 17.655-17.655 17.655h-211.862c-9.746 0-17.655-7.892-17.655-17.655s7.91-17.655 17.655-17.655zM653.241 236.138h211.862c9.746 0 17.655 7.892 17.655 17.655s-7.91 17.655-17.655 17.655h-211.862c-9.746 0-17.655-7.892-17.655-17.655s7.91-17.655 17.655-17.655zM365.586 301.586c-6.903 6.903-18.061 6.903-24.964 0l-75.794-75.794-75.794 75.794c-6.903 6.903-18.061 6.903-24.964 0s-6.903-18.061 0-24.964l75.794-75.794-75.794-75.794c-6.903-6.903-6.903-18.061 0-24.964 3.443-3.443 7.962-5.173 12.482-5.173s9.039 1.73 12.482 5.173l75.794 75.794 75.794-75.794c3.443-3.443 7.962-5.173 12.482-5.173s9.039 1.73 12.482 5.173c6.903 6.903 6.903 18.061 0 24.964l-75.794 75.794 75.794 75.794c6.903 6.903 6.903 18.061 0 24.964z" />
<glyph unicode="&#xe917;" glyph-name="basura" d="M938.947 812.632h-213.053v34.737c0 62.105-50.526 112.632-112.632 112.632h-202.526c-62.105 0-112.632-50.526-112.632-112.632v-34.737h-213.053c-15.789 0-28.421-12.632-28.421-28.421s12.632-28.421 28.421-28.421h51.368v-667.789c0-83.789 68.211-152 152-152h447.158c83.789 0 152 68.211 152 152v667.789h51.368c15.789 0 28.421 12.632 28.421 28.421s-12.632 28.421-28.421 28.421zM354.947 847.368c0 30.737 25.053 55.789 55.789 55.789h202.526c30.737 0 55.789-25.053 55.789-55.789v-34.737h-314.105v34.737zM830.737 88c0-52.421-42.737-95.158-95.158-95.158h-447.158c-52.421 0-95.158 42.737-95.158 95.158v667.789h637.684v-667.789h-0.211zM512 94.737c15.789 0 28.421 12.632 28.421 28.421v502.316c0 15.789-12.632 28.421-28.421 28.421s-28.421-12.632-28.421-28.421v-502.105c0-15.789 12.632-28.632 28.421-28.632zM326.526 126.105c15.789 0 28.421 12.632 28.421 28.421v439.789c0 15.789-12.632 28.421-28.421 28.421s-28.421-12.632-28.421-28.421v-439.789c0-15.789 12.842-28.421 28.421-28.421zM697.474 126.105c15.789 0 28.421 12.632 28.421 28.421v439.789c0 15.789-12.632 28.421-28.421 28.421s-28.421-12.632-28.421-28.421v-439.789c0-15.789 12.632-28.421 28.421-28.421z" />
<glyph unicode="&#xe918;" glyph-name="action-ok" d="M512-64c-281.814 0-512 230.186-512 512s230.186 512 512 512 512-230.186 512-512-228.034-512-512-512zM512 897.613c-247.395 0-447.461-200.067-447.461-447.461s200.067-447.463 447.463-447.463 447.461 200.067 447.461 447.463c2.149 247.395-200.069 447.461-447.463 447.461zM464.672 297.411c-8.605 0-17.211 4.303-23.663 8.605l-105.413 105.413c-12.908 12.908-12.908 32.268 0 45.177s32.268 12.908 45.177 0l81.748-81.748 191.463 187.16c12.908 12.908 32.268 12.908 45.177 0s12.908-32.268 0-45.177l-210.823-210.825c-6.454-6.452-15.060-8.603-23.665-8.605z" />
<glyph unicode="&#xe919;" glyph-name="action-error" d="M512.001-64c-281.223 0-510.927 229.703-510.927 513.073s229.701 510.927 510.927 510.927 510.927-229.703 510.927-510.927-227.556-513.073-510.927-513.073zM512.001 895.598c-246.876 0-446.525-199.647-446.525-446.525s199.647-446.525 446.525-446.525 446.525 199.647 446.525 446.525c2.145 246.876-199.649 446.523-446.525 446.525zM662.273 266.599c-8.587 0-17.175 2.147-23.613 8.587l-150.272 150.272c-12.881 12.881-12.881 32.201 0 45.082l150.272 150.272c12.881 12.881 32.201 12.881 45.082 0s12.881-32.201 0-45.082l-126.658-126.658 126.658-126.658c12.881-12.881 12.881-32.201 0-45.082-4.294-8.585-12.881-10.732-21.469-10.732zM361.727 266.599c-8.587 0-17.175 2.147-23.613 8.587-12.881 12.881-12.881 32.201 0 45.082l126.658 126.658-126.658 126.658c-12.881 12.881-12.881 32.201 0 45.082s32.201 12.881 45.082 0l150.272-150.272c12.881-12.881 12.881-32.201 0-45.082l-150.272-150.272c-4.294-4.296-12.881-6.443-21.469-6.443z" />
<glyph unicode="&#xe91a;" glyph-name="action-more" d="M512-64c-281.814 0-512 230.186-512 512s230.186 512 512 512 512-230.186 512-512-230.186-512-512-512zM512 897.613c-247.395 0-447.461-200.067-447.461-447.461s200.067-447.463 447.463-447.463 447.461 200.067 447.461 447.463-200.069 447.461-447.463 447.461zM724.975 417.883h-212.975c-17.211 0-32.268 15.060-32.268 32.268v212.975c0 17.211 15.060 32.268 32.268 32.268s32.268-15.060 32.268-32.268v-180.706h180.706c17.211 0 32.268-15.060 32.268-32.268 0-19.362-15.058-32.268-32.268-32.268zM512 204.908c-17.211 0-32.268 15.060-32.268 32.268v180.706h-180.706c-17.211 0-32.268 15.060-32.268 32.268s15.060 32.268 32.268 32.268h212.975c17.211 0 32.268-15.060 32.268-32.268v-212.975c0-19.362-15.058-32.268-32.268-32.268z" />
<glyph unicode="&#xe91b;" glyph-name="action-remove" d="M512.001-64c-281.81 0-511.993 230.183-511.993 511.993s230.18 511.993 511.993 511.993c281.81 2.151 511.993-228.031 511.993-509.842s-230.183-514.144-511.993-514.144zM512.001 897.599c-247.391 0-447.457-200.064-447.457-447.457s200.066-447.455 447.457-447.455 447.457 200.064 447.457 447.457-200.066 447.455-447.457 447.455zM724.973 417.874h-212.972c-17.211 0-32.268 15.059-32.268 32.268s15.059 32.268 32.268 32.268h212.972c17.211 0 32.268-15.059 32.268-32.268 0-19.36-15.059-32.268-32.268-32.268zM512.001 417.874h-212.972c-17.211 0-32.268 15.059-32.268 32.268s15.059 32.268 32.268 32.268h212.972c17.211 0 32.268-15.059 32.268-32.268 0-19.36-15.059-32.268-32.268-32.268z" />
<glyph unicode="&#xe91c;" glyph-name="action-next" d="M512-64c-281.814 0-512 230.186-512 512s230.186 512 512 512 512-230.186 512-512-230.186-512-512-512zM512 897.613c-247.395 0-447.461-200.067-447.461-447.461s200.067-447.463 447.463-447.463 447.461 200.067 447.461 447.463-200.069 447.461-447.463 447.461zM415.193 224.268c-8.605 0-17.211 2.151-23.663 8.605-12.908 12.908-12.908 32.268 0 45.177l169.95 169.95-169.95 169.95c-12.908 12.908-12.908 32.268 0 45.177s32.268 12.908 45.177 0l191.463-191.463c6.454-6.454 8.605-15.060 8.605-23.663 0-8.605-4.303-17.211-8.605-23.663l-189.312-189.312c-6.454-6.454-15.060-10.757-23.665-10.757z" />
<glyph unicode="&#xe91d;" glyph-name="action-prev" d="M511.999-64c-281.223 0-510.927 229.703-510.927 510.927s229.703 513.073 510.927 513.073 510.927-229.703 510.927-510.927-227.554-513.073-510.927-513.073zM511.999 895.598c-246.876 0-446.525-199.647-446.525-446.525s199.647-446.525 446.525-446.525 446.525 199.647 446.525 446.525-199.647 446.523-446.525 446.525zM608.603 223.664c-8.587 0-17.175 2.147-23.613 8.587l-191.062 191.062c-6.441 8.587-10.734 17.175-10.734 25.76 0 8.587 4.294 17.175 8.587 23.613l191.062 191.062c12.881 12.881 32.201 12.881 45.082 0s12.881-32.201 0-45.082l-169.593-169.593 169.593-169.593c12.881-12.881 12.881-32.201 0-45.082-4.294-6.441-10.734-10.734-19.322-10.734z" />
<glyph unicode="&#xe91e;" glyph-name="action-retomar" d="M500.859-7.464h-375.644c-69.564 0-125.215 55.651-125.215 125.213v375.646c0 69.564 55.651 125.215 125.215 125.215h375.644c69.564 0 125.215-55.651 125.215-125.215v-375.644c0-69.564-55.651-125.215-125.215-125.215zM125.215 535.132c-22.261 0-41.738-19.479-41.738-41.738v-375.644c0-22.261 19.479-41.738 41.738-41.738h375.644c22.261 0 41.738 19.479 41.738 41.738v375.644c0 22.261-19.479 41.738-41.738 41.738h-375.644zM837.547 265.226c-8.348 0-13.913 2.783-22.261 5.565-19.479 11.131-25.044 38.955-13.913 58.434 80.695 125.215 61.216 289.386-44.52 395.122s-267.124 125.213-395.12 44.52c-19.479-11.131-44.52-5.565-58.434 13.913-11.131 19.479-5.565 44.52 13.913 58.434 158.605 100.171 364.513 77.912 498.076-55.651s155.822-336.689 55.651-498.076c-8.351-13.913-19.479-22.261-33.392-22.261zM820.851 212.357c-16.696 0-33.39 11.131-38.955 25.044l-66.782 161.388c-8.348 22.261 2.783 44.52 22.261 55.651 22.261 8.348 44.52-2.783 55.651-22.261l50.086-122.433 122.433 50.086c22.261 8.348 44.52-2.783 55.651-22.261 8.348-22.261-2.783-44.52-22.261-55.651l-161.388-66.782c-5.565-2.78-11.131-2.78-16.696-2.78z" />
<glyph unicode="&#xe91f;" glyph-name="action-update" d="M924.175 511.959c-16.583 0-30.794 11.845-35.532 28.425-40.27 177.661-196.613 303.21-381.381 303.21s-341.111-125.549-381.381-303.21c-4.738-18.951-23.687-30.794-42.639-26.056s-30.794 23.687-26.056 42.639c47.376 210.826 234.513 357.691 450.075 357.691s402.699-146.867 450.075-357.691c4.738-18.951-7.107-37.901-26.056-42.639-2.369 0-4.738-2.369-7.107-2.369zM936.019 502.483c-4.738 0-9.476 0-14.214 2.369l-123.178 52.114c-18.951 7.107-26.056 28.425-18.951 47.376s28.425 26.056 47.376 18.951l90.015-37.901 37.901 90.015c7.107 18.951 28.425 26.056 47.376 18.951s26.056-28.425 18.951-47.376l-52.114-123.178c-4.738-9.476-9.476-16.583-18.951-18.951-4.736-2.371-9.474-2.371-14.211-2.371zM514.369-18.658c-215.562 0-402.699 146.867-450.075 357.691-4.738 18.951 7.107 37.901 26.056 42.639s37.901-7.107 42.639-26.056c40.27-177.661 196.613-303.21 381.381-303.21s341.111 125.547 381.381 303.21c4.738 18.951 23.687 30.794 42.639 26.056s30.794-23.689 26.056-42.639c-47.376-210.824-232.144-357.691-450.075-357.691zM35.866 199.273c-4.738 0-9.476 0-14.214 2.369-18.951 7.107-26.056 28.425-18.951 47.376l52.114 123.178c7.107 18.951 28.425 26.056 47.376 18.951l123.178-52.114c18.951-7.107 26.056-28.425 18.951-47.376-7.107-18.951-28.425-26.056-47.376-18.951l-90.015 37.901-37.901-87.644c-4.736-14.214-18.949-23.689-33.163-23.689z" />
<glyph unicode="&#xe920;" glyph-name="action-upload" d="M824.064-64h-624.128c-67.544 0-121.581 54.037-121.581 121.584v432.296c0 21.616 18.914 40.527 40.527 40.527s40.527-18.914 40.527-40.527v-434.998c0-21.616 18.914-40.527 40.527-40.527h624.128c21.616 0 40.527 18.914 40.527 40.527v434.998c0 21.616 18.914 40.527 40.527 40.527 21.616 0 40.527-18.914 40.527-40.527v-434.998c0-64.845-54.037-118.882-121.581-118.882zM278.291 643.884c-10.808 0-21.616 2.702-29.719 10.808-16.212 16.212-16.212 40.527 0 56.739l235.062 235.062c16.212 16.212 40.527 16.212 56.739 0l235.062-235.062c16.212-16.212 16.212-40.527 0-56.739s-40.527-16.212-56.739 0l-205.34 205.34-205.34-205.34c-8.108-8.106-18.916-10.808-29.724-10.808zM510.648 189.973c-21.616 0-40.527 18.914-40.527 40.527v688.973c0 21.613 18.914 40.527 40.527 40.527s40.527-18.914 40.527-40.527v-686.268c0.003-24.318-16.209-43.232-40.527-43.232z" />
<glyph unicode="&#xe921;" glyph-name="action-download" d="M821.362-64h-621.426c-67.544 0-121.581 54.037-121.581 121.584v432.296c0 21.616 18.914 40.527 40.527 40.527s40.527-18.914 40.527-40.527v-434.998c0-21.616 18.914-40.527 40.527-40.527h624.128c21.616 0 40.527 18.914 40.527 40.527v434.998c0 21.616 18.914 40.527 40.527 40.527s40.527-18.914 40.527-40.527v-434.998c-2.702-64.845-56.739-118.882-124.283-118.882zM510.648 189.973c-10.808 0-21.616 2.702-29.719 10.808l-235.062 235.062c-16.212 16.212-16.212 40.527 0 56.739s40.527 16.212 56.739 0l205.34-205.34 205.34 205.34c16.212 16.212 40.527 16.212 56.739 0s16.212-40.527 0-56.739l-229.658-232.36c-8.103-8.106-18.911-13.51-29.719-13.51zM510.648 189.973c-21.616 0-40.527 18.914-40.527 40.527v688.973c0 21.613 18.914 40.527 40.527 40.527s40.527-18.914 40.527-40.527v-686.268c0.003-24.318-18.911-43.232-40.527-43.232z" />
<glyph unicode="&#xe922;" glyph-name="action-chat" d="M510.927-64c-70.842 0-137.392 12.881-201.794 40.788-17.175 6.441-23.613 25.76-17.175 42.935 6.441 17.175 25.76 23.613 42.935 17.175 55.816-23.613 113.777-36.494 176.034-36.494 246.876 0 446.523 199.647 446.523 446.525s-199.647 446.521-446.523 446.521c-212.528 0-397.149-150.272-437.938-358.508-2.147-10.734-4.294-23.613-4.294-34.348-2.147-17.175-4.294-34.348-4.294-53.669 0-115.924 45.082-227.556 126.658-311.279 12.881-12.881 12.881-32.201 0-45.082s-32.201-12.881-45.082 0c-92.311 96.604-143.833 221.116-143.833 356.361 0 21.467 2.147 42.935 4.294 62.257 2.147 12.881 4.294 25.76 6.441 40.788 45.084 238.29 255.465 410.031 498.047 410.031 281.223 0 510.927-229.703 510.927-510.927 0-283.37-227.556-513.073-510.927-513.073v0zM191.062-55.413c-55.816 0-111.63 15.028-161.006 42.935-15.028 8.587-21.467 27.907-10.734 45.082 8.587 15.028 27.907 21.469 45.082 10.734 38.641-23.613 83.723-34.348 128.805-34.348 40.788 0 79.429 8.587 115.924 27.907 15.028 8.587 34.348 2.147 42.935-15.028 8.587-15.028 2.147-34.348-15.028-42.935-45.082-23.615-94.457-34.348-145.978-34.348zM47.229-16.771c-12.881 0-23.613 6.441-30.054 19.322-6.441 17.175 0 34.348 17.175 42.935 42.935 19.322 79.429 49.376 107.339 88.017 10.734 15.028 30.054 19.322 45.082 8.587s19.322-30.054 8.587-45.082c-34.352-49.378-79.434-88.019-133.101-111.632-6.441-2.147-10.734-2.147-15.028-2.147zM571.036 449.073c0-33.198-26.912-60.11-60.11-60.11s-60.11 26.912-60.11 60.11c0 33.198 26.912 60.11 60.11 60.11s60.11-26.912 60.11-60.11zM800.739 449.073c0-33.198-26.912-60.11-60.11-60.11s-60.11 26.912-60.11 60.11c0 33.198 26.912 60.11 60.11 60.11s60.11-26.912 60.11-60.11zM339.188 449.073c0-33.198-26.912-60.11-60.11-60.11s-60.11 26.912-60.11 60.11c0 33.198 26.912 60.11 60.11 60.11s60.11-26.912 60.11-60.11z" />
<glyph unicode="&#xe923;" glyph-name="doc-edit" d="M626.671 584.533h-426.667c-9.421 0-17.067-7.646-17.067-17.067s7.646-17.067 17.067-17.067h426.667c9.421 0 17.067 7.646 17.067 17.067s-7.646 17.067-17.067 17.067zM200.004 686.933h170.667c9.421 0 17.067 7.646 17.067 17.067s-7.646 17.067-17.067 17.067h-170.667c-9.421 0-17.067-7.646-17.067-17.067s7.646-17.067 17.067-17.067zM626.671 448h-426.667c-9.421 0-17.067-7.646-17.067-17.067s7.646-17.067 17.067-17.067h426.667c9.421 0 17.067 7.646 17.067 17.067s-7.646 17.067-17.067 17.067zM490.138 311.467h-290.133c-9.421 0-17.067-7.646-17.067-17.067s7.646-17.067 17.067-17.067h290.133c9.421 0 17.067 7.646 17.067 17.067s-7.646 17.067-17.067 17.067zM438.938 140.8c9.421 0 17.067 7.646 17.067 17.067s-7.646 17.067-17.067 17.067h-238.933c-9.421 0-17.067-7.646-17.067-17.067s7.646-17.067 17.067-17.067h238.933zM46.404 925.867h494.933v-238.933h238.933v-307.2h34.133v331.332l-248.934 248.934h-553.199v-1024h494.933v34.133h-460.8v955.733zM575.471 901.734l180.668-180.668h-180.668v180.668zM996.813 325.769l-48.623 48.64c-19.251 19.251-52.804 19.251-72.055 0l-262.673-262.656-36.198-132.762-8.858-8.858c-6.622-6.622-6.639-17.306-0.102-23.979l-0.085-0.341 0.341 0.085c3.311-3.243 7.612-4.898 11.913-4.898 4.369 0 8.738 1.673 12.066 5.001l8.858 8.858 132.762 36.198 262.656 262.673c9.626 9.626 14.933 22.409 14.933 36.028s-5.308 26.402-14.933 36.011zM652.868 102.878l174.814 174.814 72.414-72.414-174.814-174.814-72.414 72.414zM637.457 70.025l54.955-54.955-75.554-20.599 20.599 75.554zM972.681 277.862l-48.452-48.452-72.414 72.414 48.452 48.452c6.349 6.349 17.425 6.366 23.774 0l48.64-48.64c3.174-3.174 4.932-7.39 4.932-11.878-0.017-4.489-1.758-8.721-4.932-11.895z" />
<glyph unicode="&#xe924;" glyph-name="doc-error" d="M213.333 550.4h426.667c9.421 0 17.067 7.646 17.067 17.067s-7.646 17.067-17.067 17.067h-426.667c-9.421 0-17.067-7.646-17.067-17.067s7.646-17.067 17.067-17.067zM213.333 686.933h170.667c9.421 0 17.067 7.646 17.067 17.067s-7.646 17.067-17.067 17.067h-170.667c-9.421 0-17.067-7.646-17.067-17.067s7.646-17.067 17.067-17.067zM213.333 413.867h426.667c9.421 0 17.067 7.646 17.067 17.067s-7.646 17.067-17.067 17.067h-426.667c-9.421 0-17.067-7.646-17.067-17.067s7.646-17.067 17.067-17.067zM503.467 311.467h-290.133c-9.421 0-17.067-7.646-17.067-17.067s7.646-17.067 17.067-17.067h290.133c9.421 0 17.067 7.646 17.067 17.067s-7.646 17.067-17.067 17.067zM452.267 174.933h-238.933c-9.421 0-17.067-7.646-17.067-17.067s7.646-17.067 17.067-17.067h238.933c9.421 0 17.067 7.646 17.067 17.067s-7.646 17.067-17.067 17.067zM827.733 373.538v337.527l-248.934 248.934h-553.199v-1024h750.933c122.334 0 221.867 99.533 221.867 221.867 0 104.687-72.977 192.461-170.667 215.671zM588.8 901.734l180.668-180.668h-180.668v180.668zM658.398-29.867h-598.665v955.733h494.933v-238.933h238.933v-307.951c-5.837 0.495-11.503 0.751-17.067 0.751-122.334 0-221.867-99.533-221.867-221.867 0-6.81 0.427-13.517 1.024-20.19 0.137-1.553 0.29-3.089 0.461-4.642 0.734-6.519 1.673-12.971 2.953-19.302 0.154-0.751 0.358-1.485 0.512-2.236 1.229-5.769 2.714-11.435 4.386-17.033 0.427-1.399 0.819-2.816 1.263-4.198 1.929-6.007 4.079-11.913 6.485-17.698 0.461-1.092 0.973-2.15 1.434-3.226 2.202-5.052 4.591-9.984 7.151-14.831 0.614-1.161 1.195-2.338 1.826-3.499 2.987-5.41 6.195-10.684 9.626-15.821 0.785-1.178 1.604-2.304 2.406-3.465 3.123-4.506 6.4-8.892 9.83-13.141 0.649-0.802 1.263-1.638 1.929-2.441 3.942-4.745 8.107-9.284 12.425-13.67 1.058-1.075 2.133-2.116 3.226-3.174 4.181-4.079 8.465-8.038 12.954-11.776 0.393-0.341 0.768-0.7 1.178-1.024 4.813-3.959 9.847-7.663 15.002-11.23 1.246-0.87 2.509-1.707 3.772-2.543 1.314-0.836 2.577-1.758 3.891-2.594zM776.533-29.867c-103.509 0-187.733 84.224-187.733 187.733s84.224 187.733 187.733 187.733c5.325 0 10.581-0.358 15.804-0.802 4.966-0.478 10.103-1.126 15.514-2.031l7.561-1.263c84.907-17.971 148.855-93.457 148.855-183.637 0-103.509-84.224-187.733-187.733-187.733zM861.013 242.347c-6.673 6.673-17.459 6.673-24.132 0l-60.348-60.348-60.348 60.348c-6.673 6.673-17.459 6.673-24.132 0s-6.673-17.459 0-24.132l60.348-60.348-60.348-60.348c-6.673-6.673-6.673-17.459 0-24.132 3.328-3.328 7.697-5.001 12.066-5.001s8.738 1.673 12.066 5.001l60.348 60.348 60.348-60.348c3.328-3.328 7.697-5.001 12.066-5.001s8.738 1.673 12.066 5.001c6.673 6.673 6.673 17.459 0 24.132l-60.348 60.348 60.348 60.348c6.656 6.656 6.656 17.459 0 24.132z" />
<glyph unicode="&#xe925;" glyph-name="doc-lock" d="M640 584.533h-426.667c-9.421 0-17.067-7.646-17.067-17.067s7.646-17.067 17.067-17.067h426.667c9.421 0 17.067 7.646 17.067 17.067s-7.646 17.067-17.067 17.067zM213.333 686.933h170.667c9.421 0 17.067 7.646 17.067 17.067s-7.646 17.067-17.067 17.067h-170.667c-9.421 0-17.067-7.646-17.067-17.067s7.646-17.067 17.067-17.067zM640 448h-426.667c-9.421 0-17.067-7.646-17.067-17.067s7.646-17.067 17.067-17.067h426.667c9.421 0 17.067 7.646 17.067 17.067s-7.646 17.067-17.067 17.067zM554.667 311.467h-341.333c-9.421 0-17.067-7.646-17.067-17.067s7.646-17.067 17.067-17.067h341.333c9.421 0 17.067 7.646 17.067 17.067s-7.646 17.067-17.067 17.067zM503.467 140.8c9.421 0 17.067 7.646 17.067 17.067s-7.646 17.067-17.067 17.067h-290.133c-9.421 0-17.067-7.646-17.067-17.067s7.646-17.067 17.067-17.067h290.133zM59.733 925.867h494.933v-238.933h238.933v-256h34.133v280.132l-248.934 248.934h-553.199v-1024h546.133v34.133h-512v955.733zM588.8 901.734l180.668-180.668h-180.668v180.668zM930.133 243.2v17.067c0 65.877-53.589 119.467-119.467 119.467s-119.467-53.589-119.467-119.467v-17.067h-68.267v-307.2h375.467v307.2h-68.267zM725.333 260.267c0 47.053 38.281 85.333 85.333 85.333s85.333-38.281 85.333-85.333v-17.067h-170.667v17.067zM964.267-29.867h-307.2v238.933h307.2v-238.933zM810.667 174.933c-37.649 0-68.267-30.618-68.267-68.267 0-31.71 21.845-58.214 51.2-65.843v-19.49c0-9.421 7.646-17.067 17.067-17.067s17.067 7.646 17.067 17.067v19.49c29.355 7.629 51.2 34.133 51.2 65.843 0 37.649-30.618 68.267-68.267 68.267zM810.667 72.533c-18.825 0-34.133 15.309-34.133 34.133s15.309 34.133 34.133 34.133 34.133-15.309 34.133-34.133-15.309-34.133-34.133-34.133z" />
<glyph unicode="&#xe926;" glyph-name="doc-more" d="M213.333 550.4h426.667c9.421 0 17.067 7.646 17.067 17.067s-7.646 17.067-17.067 17.067h-426.667c-9.421 0-17.067-7.646-17.067-17.067s7.646-17.067 17.067-17.067zM213.333 686.933h170.667c9.421 0 17.067 7.646 17.067 17.067s-7.646 17.067-17.067 17.067h-170.667c-9.421 0-17.067-7.646-17.067-17.067s7.646-17.067 17.067-17.067zM213.333 413.867h426.667c9.421 0 17.067 7.646 17.067 17.067s-7.646 17.067-17.067 17.067h-426.667c-9.421 0-17.067-7.646-17.067-17.067s7.646-17.067 17.067-17.067zM503.467 311.467h-290.133c-9.421 0-17.067-7.646-17.067-17.067s7.646-17.067 17.067-17.067h290.133c9.421 0 17.067 7.646 17.067 17.067s-7.646 17.067-17.067 17.067zM452.267 174.933h-238.933c-9.421 0-17.067-7.646-17.067-17.067s7.646-17.067 17.067-17.067h238.933c9.421 0 17.067 7.646 17.067 17.067s-7.646 17.067-17.067 17.067zM827.733 373.538v337.527l-248.934 248.934h-553.199v-1024h750.933c122.334 0 221.867 99.533 221.867 221.867 0 104.687-72.977 192.461-170.667 215.671zM588.8 901.734l180.668-180.668h-180.668v180.668zM658.398-29.867h-598.665v955.733h494.933v-238.933h238.933v-307.951c-5.837 0.495-11.503 0.751-17.067 0.751-122.334 0-221.867-99.533-221.867-221.867 0-6.81 0.427-13.517 1.024-20.19 0.137-1.553 0.29-3.089 0.461-4.642 0.734-6.519 1.673-12.971 2.953-19.302 0.154-0.751 0.358-1.485 0.512-2.236 1.229-5.769 2.714-11.435 4.386-17.033 0.427-1.399 0.819-2.816 1.263-4.198 1.929-6.007 4.079-11.913 6.485-17.698 0.461-1.092 0.973-2.15 1.434-3.226 2.202-5.052 4.591-9.984 7.151-14.831 0.614-1.161 1.195-2.338 1.826-3.499 2.987-5.41 6.195-10.684 9.626-15.821 0.785-1.178 1.604-2.304 2.406-3.465 3.123-4.506 6.4-8.892 9.83-13.141 0.649-0.802 1.263-1.638 1.929-2.441 3.942-4.745 8.107-9.284 12.425-13.67 1.058-1.075 2.133-2.116 3.226-3.174 4.181-4.079 8.465-8.038 12.954-11.776 0.393-0.341 0.768-0.7 1.178-1.024 4.813-3.959 9.847-7.663 15.002-11.23 1.246-0.87 2.509-1.707 3.772-2.543 1.314-0.836 2.577-1.758 3.891-2.594zM776.533-29.867c-103.509 0-187.733 84.224-187.733 187.733s84.224 187.733 187.733 187.733c5.325 0 10.581-0.358 15.804-0.802 4.966-0.478 10.103-1.126 15.514-2.031l7.561-1.263c84.907-17.971 148.855-93.457 148.855-183.637 0-103.509-84.224-187.733-187.733-187.733zM878.933 174.933h-85.333v85.333c0 9.421-7.646 17.067-17.067 17.067s-17.067-7.646-17.067-17.067v-85.333h-85.333c-9.421 0-17.067-7.646-17.067-17.067s7.646-17.067 17.067-17.067h85.333v-85.333c0-9.421 7.646-17.067 17.067-17.067s17.067 7.646 17.067 17.067v85.333h85.333c9.421 0 17.067 7.646 17.067 17.067s-7.646 17.067-17.067 17.067z" />
<glyph unicode="&#xe927;" glyph-name="doc-mouse" d="M677.922 567.467c0 9.421-7.629 17.067-17.067 17.067h-426.667c-9.438 0-17.067-7.646-17.067-17.067s7.629-17.067 17.067-17.067h426.667c9.421 0 17.067 7.646 17.067 17.067zM234.189 686.933h170.667c9.438 0 17.067 7.646 17.067 17.067s-7.629 17.067-17.067 17.067h-170.667c-9.438 0-17.067-7.646-17.067-17.067s7.629-17.067 17.067-17.067zM558.455 448h-324.267c-9.438 0-17.067-7.646-17.067-17.067s7.629-17.067 17.067-17.067h324.267c9.438 0 17.067 7.646 17.067 17.067s-7.646 17.067-17.067 17.067zM575.522 294.4c0 9.421-7.629 17.067-17.067 17.067h-324.267c-9.438 0-17.067-7.646-17.067-17.067s7.629-17.067 17.067-17.067h324.267c9.421 0 17.067 7.646 17.067 17.067zM234.189 174.933c-9.438 0-17.067-7.646-17.067-17.067s7.629-17.067 17.067-17.067h273.067c9.438 0 17.067 7.646 17.067 17.067s-7.629 17.067-17.067 17.067h-273.067zM80.589 925.867h494.933v-238.933h238.933v-392.533h34.133v416.666l-248.934 248.934h-553.199v-1024h665.6v34.133h-631.467v955.733zM609.655 901.734l180.668-180.668h-180.668v180.668zM972.544-0.734l-116.002 116.002 110.643 55.313-301.005 110.899 110.916-301.005 55.313 110.66 116.002-116.002c3.345-3.328 7.697-5.001 12.066-5.001s8.738 1.673 12.066 5.001c6.673 6.673 6.673 17.459 0 24.132zM723.78 223.898l157.559-58.044-66.338-33.178-33.178-66.355-58.044 157.577z" />
<glyph unicode="&#xe928;" glyph-name="doc-ok" d="M213.333 550.4h426.667c9.421 0 17.067 7.646 17.067 17.067s-7.646 17.067-17.067 17.067h-426.667c-9.421 0-17.067-7.646-17.067-17.067s7.646-17.067 17.067-17.067zM213.333 686.933h170.667c9.421 0 17.067 7.646 17.067 17.067s-7.646 17.067-17.067 17.067h-170.667c-9.421 0-17.067-7.646-17.067-17.067s7.646-17.067 17.067-17.067zM213.333 413.867h426.667c9.421 0 17.067 7.646 17.067 17.067s-7.646 17.067-17.067 17.067h-426.667c-9.421 0-17.067-7.646-17.067-17.067s7.646-17.067 17.067-17.067zM503.467 311.467h-290.133c-9.421 0-17.067-7.646-17.067-17.067s7.646-17.067 17.067-17.067h290.133c9.421 0 17.067 7.646 17.067 17.067s-7.646 17.067-17.067 17.067zM452.267 174.933h-238.933c-9.421 0-17.067-7.646-17.067-17.067s7.646-17.067 17.067-17.067h238.933c9.421 0 17.067 7.646 17.067 17.067s-7.646 17.067-17.067 17.067zM827.733 373.538v337.527l-248.934 248.934h-553.199v-1024h750.933c122.334 0 221.867 99.533 221.867 221.867 0 104.687-72.977 192.461-170.667 215.671zM588.8 901.734l180.668-180.668h-180.668v180.668zM658.398-29.867h-598.665v955.733h494.933v-238.933h238.933v-307.951c-5.837 0.495-11.503 0.751-17.067 0.751-122.334 0-221.867-99.533-221.867-221.867 0-6.81 0.427-13.517 1.024-20.19 0.137-1.553 0.29-3.089 0.461-4.642 0.734-6.519 1.673-12.971 2.953-19.302 0.154-0.751 0.358-1.485 0.512-2.236 1.229-5.769 2.714-11.435 4.386-17.033 0.427-1.399 0.819-2.816 1.263-4.198 1.929-6.007 4.079-11.913 6.485-17.698 0.461-1.092 0.973-2.15 1.434-3.226 2.202-5.052 4.591-9.984 7.151-14.831 0.614-1.161 1.195-2.338 1.826-3.499 2.987-5.41 6.195-10.684 9.626-15.821 0.785-1.178 1.604-2.304 2.406-3.465 3.123-4.506 6.4-8.892 9.83-13.141 0.649-0.802 1.263-1.638 1.929-2.441 3.942-4.745 8.107-9.284 12.425-13.67 1.058-1.075 2.133-2.116 3.226-3.174 4.181-4.079 8.465-8.038 12.954-11.776 0.393-0.341 0.768-0.7 1.178-1.024 4.813-3.959 9.847-7.663 15.002-11.23 1.246-0.87 2.509-1.707 3.772-2.543 1.314-0.836 2.577-1.758 3.891-2.594zM776.533-29.867c-103.509 0-187.733 84.224-187.733 187.733s84.224 187.733 187.733 187.733c5.325 0 10.581-0.358 15.804-0.802 4.966-0.478 10.103-1.126 15.514-2.031l7.561-1.263c84.907-17.971 148.855-93.457 148.855-183.637 0-103.509-84.224-187.733-187.733-187.733zM864.922 252.945l-95.505-137.216-67.396 55.33c-7.27 5.99-18.039 4.915-24.013-2.372-5.99-7.287-4.932-18.039 2.372-24.013l81.681-67.055c3.072-2.509 6.895-3.874 10.82-3.874 0.768 0 1.553 0.051 2.338 0.154 4.71 0.666 8.943 3.243 11.674 7.151l106.052 152.388c5.376 7.731 3.482 18.381-4.267 23.757-7.748 5.41-18.364 3.482-23.757-4.25z" />
<glyph unicode="&#xe929;" glyph-name="doc-remove" d="M213.333 550.4h426.667c9.421 0 17.067 7.646 17.067 17.067s-7.646 17.067-17.067 17.067h-426.667c-9.421 0-17.067-7.646-17.067-17.067s7.646-17.067 17.067-17.067zM213.333 686.933h170.667c9.421 0 17.067 7.646 17.067 17.067s-7.646 17.067-17.067 17.067h-170.667c-9.421 0-17.067-7.646-17.067-17.067s7.646-17.067 17.067-17.067zM213.333 413.867h426.667c9.421 0 17.067 7.646 17.067 17.067s-7.646 17.067-17.067 17.067h-426.667c-9.421 0-17.067-7.646-17.067-17.067s7.646-17.067 17.067-17.067zM503.467 311.467h-290.133c-9.421 0-17.067-7.646-17.067-17.067s7.646-17.067 17.067-17.067h290.133c9.421 0 17.067 7.646 17.067 17.067s-7.646 17.067-17.067 17.067zM452.267 174.933h-238.933c-9.421 0-17.067-7.646-17.067-17.067s7.646-17.067 17.067-17.067h238.933c9.421 0 17.067 7.646 17.067 17.067s-7.646 17.067-17.067 17.067zM827.733 373.538v337.527l-248.934 248.934h-553.199v-1024h750.933c122.334 0 221.867 99.533 221.867 221.867 0 104.687-72.977 192.461-170.667 215.671zM588.8 901.734l180.668-180.668h-180.668v180.668zM658.398-29.867h-598.665v955.733h494.933v-238.933h238.933v-307.951c-5.837 0.495-11.503 0.751-17.067 0.751-122.334 0-221.867-99.533-221.867-221.867 0-6.81 0.427-13.517 1.024-20.19 0.137-1.553 0.29-3.089 0.461-4.642 0.734-6.519 1.673-12.971 2.953-19.302 0.154-0.751 0.358-1.485 0.512-2.236 1.229-5.769 2.714-11.435 4.386-17.033 0.427-1.399 0.819-2.816 1.263-4.198 1.929-6.007 4.079-11.913 6.485-17.698 0.461-1.092 0.973-2.15 1.434-3.226 2.202-5.052 4.591-9.984 7.151-14.831 0.614-1.161 1.195-2.338 1.826-3.499 2.987-5.41 6.195-10.684 9.626-15.821 0.785-1.178 1.604-2.304 2.406-3.465 3.123-4.506 6.4-8.892 9.83-13.141 0.649-0.802 1.263-1.638 1.929-2.441 3.942-4.745 8.107-9.284 12.425-13.67 1.058-1.075 2.133-2.116 3.226-3.174 4.181-4.079 8.465-8.038 12.954-11.776 0.393-0.341 0.768-0.7 1.178-1.024 4.813-3.959 9.847-7.663 15.002-11.23 1.246-0.87 2.509-1.707 3.772-2.543 1.314-0.836 2.577-1.758 3.891-2.594zM776.533-29.867c-103.509 0-187.733 84.224-187.733 187.733s84.224 187.733 187.733 187.733c5.325 0 10.581-0.358 15.804-0.802 4.966-0.478 10.103-1.126 15.514-2.031l7.561-1.263c84.907-17.971 148.855-93.457 148.855-183.637 0-103.509-84.224-187.733-187.733-187.733zM878.933 174.933h-204.8c-9.421 0-17.067-7.646-17.067-17.067s7.646-17.067 17.067-17.067h204.8c9.421 0 17.067 7.646 17.067 17.067s-7.646 17.067-17.067 17.067z" />
<glyph unicode="&#xe92a;" glyph-name="doc-retomar" d="M614.4 584.533h-426.667c-9.438 0-17.067-7.646-17.067-17.067s7.629-17.067 17.067-17.067h426.667c9.438 0 17.067 7.646 17.067 17.067s-7.629 17.067-17.067 17.067zM187.733 686.933h170.667c9.438 0 17.067 7.646 17.067 17.067s-7.629 17.067-17.067 17.067h-170.667c-9.438 0-17.067-7.646-17.067-17.067s7.629-17.067 17.067-17.067zM631.467 430.933c0 9.421-7.629 17.067-17.067 17.067h-426.667c-9.438 0-17.067-7.646-17.067-17.067s7.629-17.067 17.067-17.067h426.667c9.438 0 17.067 7.646 17.067 17.067zM494.933 294.4c0 9.421-7.629 17.067-17.067 17.067h-290.133c-9.438 0-17.067-7.646-17.067-17.067s7.629-17.067 17.067-17.067h290.133c9.438 0 17.067 7.646 17.067 17.067zM187.733 174.933c-9.438 0-17.067-7.646-17.067-17.067s7.629-17.067 17.067-17.067h238.933c9.438 0 17.067 7.646 17.067 17.067s-7.629 17.067-17.067 17.067h-238.933zM34.133 925.867h494.933v-238.933h238.933v-238.933h34.133v263.066l-248.934 248.934h-553.199v-1024h563.2v34.133h-529.067v955.733zM563.2 901.734l180.668-180.668h-180.668v180.668zM802.133 396.8c-64.239 0-124.877-26.982-166.4-74.035-6.229-7.066-5.564-17.852 1.502-24.098 7.083-6.212 17.835-5.598 24.098 1.502 35.038 39.731 86.374 62.498 140.8 62.498 103.509 0 187.733-84.224 187.733-187.733s-84.224-187.733-187.733-187.733c-85.197 0-160.529 57.463-183.313 136.533h80.913v34.133h-136.533v-136.533h34.133v62.515c35.721-77.329 115.729-130.782 204.8-130.782 122.334 0 221.867 99.533 221.867 221.867s-99.533 221.867-221.867 221.867z" />
<glyph unicode="&#xe92b;" glyph-name="doc-search" d="M622.78 584.533h-426.667c-9.438 0-17.067-7.646-17.067-17.067s7.629-17.067 17.067-17.067h426.667c9.438 0 17.067 7.646 17.067 17.067s-7.629 17.067-17.067 17.067zM196.113 686.933h170.667c9.438 0 17.067 7.646 17.067 17.067s-7.629 17.067-17.067 17.067h-170.667c-9.438 0-17.067-7.646-17.067-17.067s7.629-17.067 17.067-17.067zM639.846 430.933c0 9.421-7.629 17.067-17.067 17.067h-426.667c-9.438 0-17.067-7.646-17.067-17.067s7.629-17.067 17.067-17.067h426.667c9.438 0 17.067 7.646 17.067 17.067zM503.313 294.4c0 9.421-7.629 17.067-17.067 17.067h-290.133c-9.438 0-17.067-7.646-17.067-17.067s7.629-17.067 17.067-17.067h290.133c9.438 0 17.067 7.646 17.067 17.067zM196.113 174.933c-9.438 0-17.067-7.646-17.067-17.067s7.629-17.067 17.067-17.067h238.933c9.438 0 17.067 7.646 17.067 17.067s-7.629 17.067-17.067 17.067h-238.933zM42.513 925.867h494.933v-238.933h238.933v-256h34.133v280.132l-248.934 248.934h-553.199v-1024h631.467v34.133h-597.333v955.733zM571.58 901.734l180.668-180.668h-180.668v180.668zM1010.893-34.833l-101.888 106.564c29.798 32.751 48.128 76.083 48.128 123.75 0.017 101.598-82.637 184.252-184.235 184.252s-184.252-82.654-184.252-184.252 82.654-184.252 184.252-184.252c41.677 0 80.026 14.063 110.916 37.478l102.417-107.11c3.345-3.516 7.834-5.274 12.339-5.274 4.25 0 8.482 1.57 11.793 4.727 6.793 6.502 7.049 17.323 0.529 24.115zM622.78 195.482c0 82.773 67.345 150.118 150.118 150.118s150.118-67.345 150.118-150.118-67.345-150.118-150.118-150.118-150.118 67.345-150.118 150.118z" />
<glyph unicode="&#xe92c;" glyph-name="doc-time" d="M648.533 567.467c0 9.421-7.629 17.067-17.067 17.067h-426.667c-9.438 0-17.067-7.646-17.067-17.067s7.629-17.067 17.067-17.067h426.667c9.438 0 17.067 7.646 17.067 17.067zM204.8 686.933h170.667c9.438 0 17.067 7.646 17.067 17.067s-7.629 17.067-17.067 17.067h-170.667c-9.438 0-17.067-7.646-17.067-17.067s7.629-17.067 17.067-17.067zM529.067 448h-324.267c-9.438 0-17.067-7.646-17.067-17.067s7.629-17.067 17.067-17.067h324.267c9.438 0 17.067 7.646 17.067 17.067s-7.629 17.067-17.067 17.067zM546.133 294.4c0 9.421-7.629 17.067-17.067 17.067h-324.267c-9.438 0-17.067-7.646-17.067-17.067s7.629-17.067 17.067-17.067h324.267c9.438 0 17.067 7.646 17.067 17.067zM204.8 174.933c-9.438 0-17.067-7.646-17.067-17.067s7.629-17.067 17.067-17.067h273.067c9.438 0 17.067 7.646 17.067 17.067s-7.629 17.067-17.067 17.067h-273.067zM51.2 925.867h494.933v-238.933h238.933v-290.133h34.133v314.266l-248.934 248.934h-553.199v-1024h580.267v34.133h-546.133v955.733zM580.267 901.734l180.668-180.668h-180.668v180.668zM802.133 345.6c-112.93 0-204.8-91.87-204.8-204.8s91.87-204.8 204.8-204.8 204.8 91.87 204.8 204.8-91.87 204.8-204.8 204.8zM802.133-29.867c-94.106 0-170.667 76.561-170.667 170.667s76.561 170.667 170.667 170.667 170.667-76.561 170.667-170.667-76.561-170.667-170.667-170.667zM904.533 157.867h-85.333v85.333c0 9.421-7.629 17.067-17.067 17.067s-17.067-7.646-17.067-17.067v-102.4c0-9.421 7.629-17.067 17.067-17.067h102.4c9.438 0 17.067 7.646 17.067 17.067s-7.629 17.067-17.067 17.067z" />
<glyph unicode="&#xe92d;" glyph-name="doc-update" d="M622.933 584.533h-426.667c-9.438 0-17.067-7.646-17.067-17.067s7.629-17.067 17.067-17.067h426.667c9.438 0 17.067 7.646 17.067 17.067s-7.629 17.067-17.067 17.067zM196.267 686.933h170.667c9.438 0 17.067 7.646 17.067 17.067s-7.629 17.067-17.067 17.067h-170.667c-9.438 0-17.067-7.646-17.067-17.067s7.629-17.067 17.067-17.067zM640 430.933c0 9.421-7.629 17.067-17.067 17.067h-426.667c-9.438 0-17.067-7.646-17.067-17.067s7.629-17.067 17.067-17.067h426.667c9.438 0 17.067 7.646 17.067 17.067zM503.467 294.4c0 9.421-7.629 17.067-17.067 17.067h-290.133c-9.438 0-17.067-7.646-17.067-17.067s7.629-17.067 17.067-17.067h290.133c9.438 0 17.067 7.646 17.067 17.067zM196.267 174.933c-9.438 0-17.067-7.646-17.067-17.067s7.629-17.067 17.067-17.067h238.933c9.438 0 17.067 7.646 17.067 17.067s-7.629 17.067-17.067 17.067h-238.933zM42.667 925.867h494.933v-238.933h238.933v-238.933h34.133v263.066l-248.934 248.934h-553.199v-1024h597.333v34.133h-563.2v955.733zM571.733 901.734l180.668-180.668h-180.668v180.668zM984.73 140.459c-9.353 1.911-18.244-4.113-20.139-13.329-19.046-93.901-92.928-156.996-183.808-156.996-85.828 0-161.229 56.32-186.846 136.533h80.196v34.133h-136.533v-136.533h34.133v65.673c37.001-79.889 118.016-133.939 209.050-133.939 107.588 0 194.901 74.086 217.276 184.337 1.877 9.233-4.096 18.244-13.329 20.122zM981.333 345.6v-73.523c-38.4 75.998-114.415 124.723-200.55 124.723-104.26 0-196.966-68.215-225.434-165.888-2.628-9.045 2.56-18.517 11.622-21.163 9.045-2.662 18.517 2.577 21.146 11.605 23.859 81.886 104.875 141.312 192.666 141.312 77.909 0 146.108-47.189 176.299-119.467h-78.148v-34.133h102.349c0.017 0 0.034 0 0.051 0s0.034 0 0.051 0h34.082v136.533h-34.133z" />
<glyph unicode="&#xe92e;" glyph-name="doc-upload" d="M631.467 584.533h-426.667c-9.421 0-17.067-7.646-17.067-17.067s7.646-17.067 17.067-17.067h426.667c9.421 0 17.067 7.646 17.067 17.067s-7.646 17.067-17.067 17.067zM204.8 686.933h170.667c9.421 0 17.067 7.646 17.067 17.067s-7.646 17.067-17.067 17.067h-170.667c-9.421 0-17.067-7.646-17.067-17.067s7.646-17.067 17.067-17.067zM648.533 430.933c0 9.421-7.646 17.067-17.067 17.067h-426.667c-9.421 0-17.067-7.646-17.067-17.067s7.646-17.067 17.067-17.067h426.667c9.421 0 17.067 7.646 17.067 17.067zM512 294.4c0 9.421-7.646 17.067-17.067 17.067h-290.133c-9.421 0-17.067-7.646-17.067-17.067s7.646-17.067 17.067-17.067h290.133c9.421 0 17.067 7.646 17.067 17.067zM204.8 174.933c-9.421 0-17.067-7.646-17.067-17.067s7.646-17.067 17.067-17.067h238.933c9.421 0 17.067 7.646 17.067 17.067s-7.646 17.067-17.067 17.067h-238.933zM51.2 925.867h494.933v-238.933h238.933v-290.133h34.133v314.266l-248.934 248.934h-553.199v-1024h529.067v34.133h-494.933v955.733zM580.267 901.734l180.668-180.668h-180.668v180.668zM597.333 345.6v-409.6h409.6v409.6h-409.6zM972.8-29.867h-153.6v214.801l73.267-73.267 24.132 24.132-114.466 114.466-114.466-114.466 24.132-24.132 73.267 73.267v-214.801h-153.6v341.333h341.333v-341.333z" />
<glyph unicode="&#xe92f;" glyph-name="doc-warning" d="M614.39 584.523h-426.66c-9.421 0-17.066-7.646-17.066-17.066s7.646-17.066 17.066-17.066h426.66c9.421 0 17.066 7.646 17.066 17.066s-7.646 17.066-17.066 17.066zM187.73 686.921h170.664c9.421 0 17.066 7.646 17.066 17.066s-7.646 17.066-17.066 17.066h-170.664c-9.421 0-17.066-7.646-17.066-17.066s7.646-17.066 17.066-17.066zM631.456 430.925c0 9.421-7.646 17.066-17.066 17.066h-426.66c-9.421 0-17.066-7.646-17.066-17.066s7.646-17.066 17.066-17.066h426.66c9.421 0 17.066 7.646 17.066 17.066zM494.925 294.394c0 9.421-7.646 17.066-17.066 17.066h-290.128c-9.421 0-17.066-7.646-17.066-17.066s7.646-17.066 17.066-17.066h290.128c9.421 0 17.066 7.646 17.066 17.066zM187.73 174.929c-9.421 0-17.066-7.646-17.066-17.066s7.646-17.066 17.066-17.066h238.929c9.421 0 17.066 7.646 17.066 17.066s-7.646 17.066-17.066 17.066h-238.929zM34.133 925.85h494.925v-238.929h238.929v-290.128h34.133v314.26l-248.93 248.93h-553.19v-1023.983h511.991v34.133h-477.859v955.717zM563.191 901.718l180.665-180.665h-180.665v180.665zM1018.744-6.572l-202.134 346.567c-6.929 11.861-19.251 18.944-33.006 18.944-13.738 0-26.060-7.083-32.989-18.944l-202.151-346.567c-6.98-11.964-7.031-26.265-0.137-38.263s19.268-19.166 33.109-19.166h404.32c13.841 0 26.214 7.168 33.092 19.166 6.912 11.998 6.878 26.316-0.102 38.263zM989.27-27.836c-0.512-0.939-1.57-2.031-3.499-2.031h-404.32c-1.946 0-2.987 1.109-3.516 2.031-0.529 0.939-0.956 2.389 0.017 4.062l202.151 346.567c0.973 1.673 2.44 2.014 3.499 2.014 1.075 0 2.526-0.358 3.516-2.014l202.151-346.55c0.956-1.69 0.546-3.14 0-4.079zM785.054 243.195c-9.421 0-17.066-7.646-17.066-17.066v-136.531c0-9.421 7.646-17.066 17.066-17.066s17.066 7.646 17.066 17.066v136.531c0 9.438-7.646 17.066-17.066 17.066zM772.936 33.449c-3.072-3.243-4.949-7.68-4.949-12.117s1.877-8.875 4.949-12.117c3.243-3.072 7.68-4.949 12.117-4.949 4.608 0 8.875 1.877 12.117 4.949 3.072 3.243 4.949 7.68 4.949 12.117s-1.877 8.875-4.949 12.117c-6.485 6.315-17.749 6.315-24.234 0z" />
<glyph unicode="&#xe930;" glyph-name="doc-cloud" d="M614.4 584.533h-426.667c-9.438 0-17.067-7.646-17.067-17.067s7.629-17.067 17.067-17.067h426.667c9.438 0 17.067 7.646 17.067 17.067s-7.629 17.067-17.067 17.067zM187.733 686.933h170.667c9.438 0 17.067 7.646 17.067 17.067s-7.629 17.067-17.067 17.067h-170.667c-9.438 0-17.067-7.646-17.067-17.067s7.629-17.067 17.067-17.067zM631.467 430.933c0 9.421-7.629 17.067-17.067 17.067h-426.667c-9.438 0-17.067-7.646-17.067-17.067s7.629-17.067 17.067-17.067h426.667c9.438 0 17.067 7.646 17.067 17.067zM494.933 294.4c0 9.421-7.629 17.067-17.067 17.067h-290.133c-9.438 0-17.067-7.646-17.067-17.067s7.629-17.067 17.067-17.067h290.133c9.438 0 17.067 7.646 17.067 17.067zM187.733 174.933c-9.438 0-17.067-7.646-17.067-17.067s7.629-17.067 17.067-17.067h238.933c9.438 0 17.067 7.646 17.067 17.067s-7.629 17.067-17.067 17.067h-238.933zM34.133 925.867h494.933v-238.933h238.933v-324.267h34.133v348.399l-248.934 248.934h-553.199v-1024h563.2v34.133h-529.067v955.733zM563.2 901.734l180.668-180.668h-180.668v180.668zM955.733 186.317c-7.339 70.11-65.758 125.15-135.748 125.15-43.759 0-85.060-21.965-110.575-58.061-4.983 0.87-10.018 1.297-15.087 1.297-39.595 0-74.769-26.914-86.46-65.075-32.546-19.319-53.18-55.33-53.18-93.901 0-59.836 47.531-108.527 105.95-108.527h183.876c1.007 0 1.98 0.051 3.157 0.119 0.973-0.068 1.963-0.119 2.97-0.119h73.557c55.023 0 99.806 45.858 99.806 102.212 0 44.373-28.023 83.166-68.267 96.905zM924.177 21.333l-74.138 0.034-3.038 0.102-186.385-0.137c-39.595 0-71.817 33.382-71.817 74.394 0 28.416 16.196 54.767 41.25 67.157l7.424 3.652 1.741 8.090c5.649 26.624 28.826 45.943 55.108 45.943 5.888 0 11.742-0.973 17.391-2.867l13.261-4.471 6.98 12.134c18.688 32.546 51.61 51.968 88.030 51.968 55.723 0 101.632-46.882 102.383-104.516l0.188-13.892 13.636-2.645c31.095-6.025 53.675-34.15 53.675-66.867 0-37.53-29.474-68.079-65.69-68.079z" />
<glyph unicode="&#xe931;" glyph-name="doc-download" d="M631.467 584.533h-426.667c-9.421 0-17.067-7.646-17.067-17.067s7.646-17.067 17.067-17.067h426.667c9.421 0 17.067 7.646 17.067 17.067s-7.646 17.067-17.067 17.067zM204.8 686.933h170.667c9.421 0 17.067 7.646 17.067 17.067s-7.646 17.067-17.067 17.067h-170.667c-9.421 0-17.067-7.646-17.067-17.067s7.646-17.067 17.067-17.067zM648.533 430.933c0 9.421-7.646 17.067-17.067 17.067h-426.667c-9.421 0-17.067-7.646-17.067-17.067s7.646-17.067 17.067-17.067h426.667c9.421 0 17.067 7.646 17.067 17.067zM512 294.4c0 9.421-7.646 17.067-17.067 17.067h-290.133c-9.421 0-17.067-7.646-17.067-17.067s7.646-17.067 17.067-17.067h290.133c9.421 0 17.067 7.646 17.067 17.067zM204.8 174.933c-9.421 0-17.067-7.646-17.067-17.067s7.646-17.067 17.067-17.067h238.933c9.421 0 17.067 7.646 17.067 17.067s-7.646 17.067-17.067 17.067h-238.933zM51.2 925.867h494.933v-238.933h238.933v-290.133h34.133v314.266l-248.934 248.934h-553.199v-1024h529.067v34.133h-494.933v955.733zM580.267 901.734l180.668-180.668h-180.668v180.668zM597.333 345.6v-409.6h409.6v409.6h-409.6zM972.8-29.867h-341.333v341.333h153.6v-214.801l-73.267 73.267-24.132-24.132 114.466-114.466 114.466 114.466-24.132 24.132-73.267-73.267v214.801h153.6v-341.333z" />
</font>
</defs>
</svg>
